<svg width="738" height="327" viewBox="0 0 738 327" fill="none" xmlns="http://www.w3.org/2000/svg">
<g clip-path="url(#clip0)">
<path d="M681.416 258.575C680.594 260.05 679.774 261.506 678.957 262.942C677.681 265.172 676.422 267.359 675.179 269.503C674.627 270.453 674.074 271.386 673.535 272.318C667.44 282.686 661.749 291.855 656.916 299.396C652.53 306.229 646.018 311.955 638.061 315.972C630.105 319.99 620.997 322.152 611.693 322.232L504.216 323.206H503.082L493.869 323.288L485.988 323.359L461.82 323.578H460.842L448.539 323.69H448.164L372.331 324.374L304.642 324.964L296.768 325.035L247.866 325.478H247.81L216.095 325.761H215.754L115.471 326.664L85.4711 326.935C82.9167 326.959 80.3629 326.853 77.8241 326.616C76.9595 326.534 76.0948 326.439 75.2373 326.327C61.2458 324.529 48.4167 318.794 38.8873 310.077C25.9815 298.258 16.591 284.468 10.2835 269.503C9.37159 267.344 8.52113 265.157 7.7321 262.942C-14.1034 201.486 12.5159 122.198 60.4251 69.1387C62.4332 66.92 64.4743 64.7564 66.5484 62.6479L66.598 62.6007C81.3322 47.5421 97.8524 34.9617 115.45 26.0163C146.633 10.1374 181.183 5.66469 215.166 18.9944C243.919 30.2766 270.765 35.5813 296.789 37.0211C299.418 37.1627 302.048 37.2689 304.663 37.3338C364.358 38.8975 420.304 20.9888 486.002 9.42934C488.617 8.96909 491.239 8.51473 493.883 8.08398C540.75 0.318638 592.742 -3.77646 654.57 4.83269C660.993 5.70639 667.332 6.96854 673.535 8.60914C676.261 9.34083 678.888 10.1276 681.416 10.9694C710.927 20.9652 727.022 39.4345 733.861 62.5771C734.508 64.7249 735.068 66.9102 735.541 69.1328C747.667 124.8 712.153 203.764 681.416 258.575Z" fill="#ECC2AB"/>
<path opacity="0.5" d="M352.246 262.942C351.96 265.149 351.518 267.34 350.921 269.503H417.327V262.942H352.246ZM296.789 300.004L304.663 299.951V283.742C301.963 283.642 299.333 283.541 296.789 283.435V300.004ZM131.715 262.942V269.503H272.395V262.942H131.715ZM733.897 62.6007H681.452V10.9753C678.924 10.1217 676.297 9.33493 673.571 8.61505V62.6007H493.883V8.06628C491.239 8.49704 488.617 8.95139 486.002 9.41165V62.6007H304.663V37.3161C302.048 37.2512 299.418 37.145 296.789 37.0034V62.6007H115.45V26.0163C97.8524 34.9618 81.3322 47.5421 66.598 62.6007H66.5484V62.6479C64.4695 64.7722 62.4284 66.9358 60.4251 69.1387H66.5484V262.942H7.72501C8.50932 265.157 9.35978 267.344 10.2764 269.503H66.5413V324.746C69.3722 325.467 72.2618 326.017 75.1877 326.392C76.0452 326.504 76.9099 326.599 77.7745 326.681C80.3133 326.918 82.8671 327.024 85.4215 327L115.421 326.729V269.492H296.789V325.082L304.663 325.011V269.503H486.002V323.412L493.883 323.342V269.503H673.535V272.318C674.074 271.386 674.627 270.453 675.179 269.503C676.422 267.36 677.681 265.172 678.957 262.942C679.774 261.51 680.594 260.054 681.416 258.575V69.1623H735.576C735.099 66.924 734.539 64.7368 733.897 62.6007ZM115.45 262.942V69.1387H296.789V262.942H115.45ZM304.677 262.942V69.1387H486.002V262.942H304.677ZM673.549 262.942H493.883V69.1387H673.535L673.549 262.942Z" fill="#E76D53"/>
<path d="M611.686 314.892V322.563L504.017 323.389L502.869 323.407L461.948 323.719L460.97 323.731L448.532 323.82H448.164L372.345 324.404L247.888 325.366H247.781L216.137 325.613L215.797 325.619L75.1877 326.693V317.842L108.249 301.32L174.585 300.86L176.003 300.854L176.47 300.848L177.888 300.83L209.737 300.612L211.162 300.606L211.615 300.6L213.033 300.594L223.245 300.524L223.515 300.518L248.71 300.341H248.915L445.513 298.96L450.325 298.93H450.807L454.478 298.901L481.161 298.718L482.579 298.7L483.89 298.688H484.57L492.869 298.635L494.514 298.618L496.718 298.606L503.628 298.553L514.591 298.476L516.009 298.464L518.475 298.452H518.936L571.884 298.075L611.686 314.892Z" fill="#65617D"/>
<path opacity="0.2" d="M611.686 314.892V322.563L504.017 323.389L502.869 323.407L461.948 323.719L460.97 323.731L448.532 323.82H448.164L372.345 324.404L247.888 325.366H247.781L216.137 325.613L215.797 325.619L75.1877 326.693V317.842L108.249 301.32L174.585 300.86L176.003 300.854L176.47 300.848L177.888 300.83L209.737 300.612L211.162 300.606L211.615 300.6L213.033 300.594L223.245 300.524L223.515 300.518L248.71 300.341H248.915L445.513 298.96L450.325 298.93H450.807L454.478 298.901L481.161 298.718L482.579 298.7L483.89 298.688H484.57L492.869 298.635L494.514 298.618L496.718 298.606L503.628 298.553L514.591 298.476L516.009 298.464L518.475 298.452H518.936L571.884 298.075L611.686 314.892Z" fill="black"/>
<path d="M209.851 285.394V299.845C209.851 300.529 209.618 301.2 209.179 301.779C208.74 302.357 208.113 302.82 207.37 303.114C206.817 303.337 206.213 303.458 205.599 303.468L180.864 303.905C180.204 303.918 179.549 303.803 178.951 303.568C178.195 303.28 177.555 302.817 177.106 302.234C176.658 301.651 176.42 300.974 176.421 300.282V285.394H209.851Z" fill="#3F3D56"/>
<path opacity="0.1" d="M209.851 285.394V299.845C209.851 300.529 209.618 301.2 209.179 301.779C208.74 302.357 208.113 302.82 207.37 303.114C206.817 303.337 206.213 303.458 205.599 303.468L180.864 303.905C180.204 303.918 179.549 303.803 178.951 303.568C178.195 303.28 177.555 302.817 177.106 302.234C176.658 301.651 176.42 300.974 176.421 300.282V285.394H209.851Z" fill="black"/>
<path d="M211.268 285.394V299.845C211.269 300.529 211.036 301.2 210.597 301.779C210.158 302.357 209.53 302.82 208.788 303.114C208.235 303.337 207.63 303.458 207.016 303.468L182.282 303.905C181.621 303.918 180.966 303.803 180.368 303.568C179.613 303.28 178.972 302.817 178.524 302.234C178.075 301.651 177.837 300.974 177.838 300.282V285.394H211.268Z" fill="#3F3D56"/>
<path d="M516.009 285.388H482.579V303.975H516.009V285.388Z" fill="#3F3D56"/>
<path opacity="0.1" d="M516.009 285.388H482.579V303.975H516.009V285.388Z" fill="black"/>
<path d="M514.592 285.388H481.161V303.975H514.592V285.388Z" fill="#3F3D56"/>
<path opacity="0.1" d="M211.261 285.388V288.321L177.831 289.064V285.388H211.261Z" fill="black"/>
<path d="M270.269 184.315V283.565C270.26 284.171 269.972 284.751 269.464 285.184C268.956 285.618 268.267 285.873 267.54 285.896L131.715 288.905H131.679C130.94 288.897 130.233 288.649 129.71 288.214C129.187 287.778 128.889 287.19 128.88 286.574V184.315C128.889 183.699 129.187 183.111 129.71 182.675C130.233 182.24 130.94 181.992 131.679 181.984H267.469C268.209 181.992 268.916 182.24 269.439 182.675C269.962 183.111 270.26 183.699 270.269 184.315Z" fill="#65617D"/>
<path opacity="0.1" d="M131.715 181.984V288.905H131.679C130.94 288.897 130.233 288.649 129.71 288.214C129.187 287.778 128.889 287.19 128.88 286.574V184.315C128.889 183.699 129.187 183.111 129.71 182.675C130.233 182.24 130.94 181.992 131.679 181.984H131.715Z" fill="black"/>
<path d="M137.909 188.321H263.706V275.799L137.909 278.16V188.321Z" fill="#6C63FF"/>
<path opacity="0.1" d="M514.592 285.388V289.171L481.161 288.427V285.388H514.592Z" fill="black"/>
<path d="M558.716 184.315V286.574C558.707 287.195 558.404 287.788 557.873 288.224C557.343 288.66 556.627 288.905 555.881 288.905L420.027 285.896C419.3 285.873 418.611 285.618 418.104 285.184C417.596 284.751 417.308 284.171 417.299 283.565V184.315C417.308 183.699 417.606 183.111 418.129 182.675C418.652 182.24 419.359 181.992 420.098 181.984H555.888C556.633 181.986 557.347 182.231 557.876 182.667C558.405 183.103 558.707 183.695 558.716 184.315Z" fill="#65617D"/>
<path opacity="0.1" d="M558.716 184.315V286.574C558.707 287.195 558.404 287.788 557.873 288.224C557.343 288.66 556.627 288.905 555.881 288.905V181.984C556.627 181.984 557.343 182.229 557.873 182.665C558.404 183.101 558.707 183.694 558.716 184.315Z" fill="black"/>
<path d="M549.673 188.321H423.876V275.799L549.673 278.16V188.321Z" fill="#6C63FF"/>
<path d="M536.481 223.62L433.517 223.003C433.38 223.002 433.249 222.949 433.152 222.854C433.056 222.76 433.002 222.633 433.003 222.5C433.004 222.367 433.059 222.241 433.157 222.147C433.254 222.054 433.386 222.002 433.523 222.003L536.487 222.62C536.624 222.62 536.755 222.674 536.852 222.768C536.948 222.863 537.002 222.99 537.001 223.123C537 223.255 536.945 223.382 536.848 223.475C536.75 223.569 536.618 223.62 536.481 223.62Z" fill="#F2F2F2"/>
<path d="M413.784 184.315V283.565C413.775 284.171 413.487 284.751 412.979 285.184C412.471 285.618 411.782 285.873 411.055 285.896L275.23 288.905C274.484 288.905 273.768 288.66 273.238 288.224C272.707 287.788 272.404 287.195 272.395 286.574V184.315C272.404 183.699 272.702 183.111 273.225 182.675C273.748 182.24 274.455 181.992 275.194 181.984H410.984C411.724 181.992 412.431 182.24 412.954 182.675C413.477 183.111 413.775 183.699 413.784 184.315Z" fill="#65617D"/>
<path d="M281.424 188.321H407.221V275.799L281.424 278.16V188.321Z" fill="#6C63FF"/>
<path opacity="0.1" d="M611.686 314.892V322.563L504.017 323.389L502.869 323.406L461.948 323.719L460.97 323.731L448.532 323.82H448.164L372.345 324.404L247.888 325.366H247.781L216.137 325.613L215.797 325.619L75.1877 326.693V317.842L218.71 317.057H219.05L248.1 316.892H248.235L448.858 315.789H449.064L449.184 315.783H449.517L452.912 315.765H453.947L506.739 315.47L509.857 315.458L510.552 315.452L611.686 314.892Z" fill="black"/>
<path d="M345.329 206.218C365.42 206.218 381.707 192.658 381.707 175.93C381.707 159.202 365.42 145.641 345.329 145.641C325.238 145.641 308.951 159.202 308.951 175.93C308.951 192.658 325.238 206.218 345.329 206.218Z" fill="#FBBEBE"/>
<path d="M381.714 222.551C381.714 222.551 311.197 229.632 317.93 222.551C320.368 219.991 321.041 212.402 320.907 203.758C320.864 201.132 320.751 198.412 320.588 195.703C319.808 182.722 317.93 170.035 317.93 170.035C317.93 170.035 379.588 145.842 372.501 165.019C369.666 172.767 370.595 183.648 372.749 193.862C373.38 196.842 374.11 199.763 374.875 202.536C376.743 209.301 379.026 215.981 381.714 222.551Z" fill="#FBBEBE"/>
<path d="M358.702 220.15C366.86 218.893 375.499 216.609 383.174 219.241C385.194 219.932 387.051 220.941 389.12 221.519C391.19 222.097 393.458 222.239 395.612 222.646C403.181 224.074 409.319 228.871 413.259 234.447C417.2 240.023 419.241 246.331 421.239 252.574L426.13 267.816C430.382 281.063 434.634 294.422 435.619 308.118C376.418 310.939 317.081 311.221 257.845 308.961C261.7 302.86 265.641 296.387 265.315 289.489C264.989 282.591 260.219 275.788 261.941 268.99C263.04 264.659 266.598 261.089 268.773 257.059C274.975 245.541 270.148 230.039 281.048 221.271C285.953 217.329 293.097 215.836 299.921 216.025C308.625 216.267 317.533 218.527 326.144 219.631C337.172 221.023 347.59 221.849 358.702 220.15Z" fill="#F8E0D2"/>
<path opacity="0.1" d="M451.473 285.748L451.402 286.592V286.651L451.282 288.008L450.339 298.93L449.198 312.089L448.872 315.795L448.164 323.725V323.825L372.331 324.415L247.888 325.537V326.032H247.788V325.537V325.371L248.107 316.898L248.717 300.341L249.241 286.303L249.291 284.904C249.322 284.06 249.559 283.23 249.988 282.465C250.417 281.7 251.029 281.016 251.787 280.454C252.544 279.892 253.431 279.465 254.394 279.199C255.356 278.932 256.374 278.832 257.384 278.903C260.729 279.139 265.074 279.428 270.269 279.735L272.395 279.865C302.395 281.6 357.838 283.842 413.784 281.045C414.96 280.992 416.144 280.933 417.327 280.862C426.002 280.408 434.67 279.824 443.252 279.092C444.337 278.997 445.434 279.102 446.465 279.398C447.496 279.695 448.437 280.176 449.221 280.808C450.004 281.439 450.612 282.206 451.001 283.055C451.391 283.903 451.552 284.813 451.473 285.719V285.748Z" fill="black"/>
<path d="M247.866 326.032V325.537L372.331 324.41L448.164 323.82H448.376V323.719L449.085 315.789L449.39 312.248L450.552 298.907L451.466 288.344V288.085C451.508 287.598 451.482 287.109 451.388 286.627C451.392 286.608 451.392 286.588 451.388 286.568C451.194 285.572 450.707 284.632 449.971 283.83C449.19 282.997 448.168 282.343 447 281.93C445.832 281.517 444.557 281.359 443.295 281.47C434.712 282.202 426.045 282.786 417.37 283.24C416.186 283.311 415.003 283.37 413.826 283.423C357.88 286.191 302.437 283.948 272.438 282.243L270.311 282.113C265.116 281.806 260.772 281.523 257.427 281.281C255.587 281.152 253.754 281.595 252.283 282.524C250.812 283.454 249.807 284.804 249.461 286.315C249.389 286.634 249.347 286.958 249.333 287.282L248.851 300.358L248.192 316.922L247.881 325.395V325.56V326.056L247.866 326.032Z" fill="#3F3D56"/>
<path opacity="0.1" d="M451.686 289.884L450.814 298.93L449.517 312.413L449.191 315.789L448.483 323.347L448.44 323.725V323.825L448.334 324.699L448.412 323.825H448.206L372.374 324.416L247.888 325.537V325.371L248.235 316.898L248.944 300.341L249.397 289.336C249.419 288.71 249.63 288.098 250.008 287.557C250.387 287.016 250.923 286.563 251.566 286.238C252.368 285.828 253.307 285.642 254.245 285.707C255.733 285.807 257.562 285.925 259.695 286.055C263.16 286.267 267.434 286.515 272.409 286.775C281.622 287.259 293.182 287.778 306.428 288.203C343.281 289.383 393.033 289.778 440.29 286.332C442.416 286.179 444.613 286.008 446.76 285.837C447.61 285.766 448.467 285.901 449.227 286.226C449.442 286.315 449.646 286.422 449.836 286.545C450.453 286.917 450.942 287.417 451.254 287.996C451.326 288.111 451.385 288.232 451.431 288.356C451.644 288.845 451.731 289.366 451.686 289.884Z" fill="black"/>
<path opacity="0.1" d="M211.268 297.963V299.845C211.269 300.529 211.036 301.2 210.597 301.779C210.158 302.357 209.53 302.82 208.788 303.114L180.368 303.568C179.613 303.28 178.972 302.817 178.524 302.234C178.075 301.651 177.837 300.974 177.838 300.282V298.511L211.268 297.963Z" fill="black"/>
<path d="M211.615 304.223L174.585 304.813V299.697L211.615 299.107V304.223Z" fill="#3F3D56"/>
<path opacity="0.1" d="M211.615 304.223L174.585 304.813V299.697L211.615 299.107V304.223Z" fill="black"/>
<path d="M213.033 304.223L176.003 304.813V299.697L213.033 299.107V304.223Z" fill="#3F3D56"/>
<path opacity="0.1" d="M481.374 299.143V301.025C481.374 301.709 481.606 302.38 482.046 302.959C482.485 303.537 483.112 304 483.855 304.294L512.274 304.748C513.03 304.46 513.67 303.997 514.119 303.414C514.567 302.832 514.805 302.154 514.804 301.462V299.691L481.374 299.143Z" fill="black"/>
<path opacity="0.1" d="M481.02 305.403L518.05 305.993V300.878L481.02 300.287V305.403Z" fill="black"/>
<path d="M479.602 305.403L516.633 305.993V300.878L479.602 300.287V305.403Z" fill="#3F3D56"/>
<path d="M312.214 159.276C312.269 161.235 310.051 163.081 308.169 164.892C301.316 171.486 298.348 178.647 299.504 185.796C300.004 188.874 301.27 191.952 300.004 195.002C298.738 198.052 294.234 201.093 287 201.969C298.998 204.893 315.239 204.585 326.532 201.225C332.548 199.434 337.031 196.935 341.418 194.479C340.897 198.892 337.772 203.188 332.309 207C342.183 206.643 351.765 205.441 360.431 203.474C369.098 201.506 376.658 198.816 382.62 195.578C385.57 193.953 388.137 192.167 389.273 190.198C391.388 186.56 388.438 182.78 386.186 179.145C384.304 176.107 382.894 173.023 381.963 169.911C381.669 168.915 381.429 167.891 382.032 166.917C382.716 165.779 384.543 164.816 385.892 163.778C389.725 160.829 389.813 157.258 387.849 154.018C385.885 150.778 382.038 147.79 378.226 144.838C375.174 142.471 371.861 139.994 366.276 138.604C362.786 137.736 358.748 137.375 354.723 137.026L337.36 135.506C333.561 135.173 329.653 134.84 325.813 135.084C319.332 135.498 314.767 137.412 310.756 139.376C307.615 140.904 299.936 143.772 299.395 145.772C298.902 147.616 302.885 150.705 303.563 152.65C304.453 155.168 305.082 154.329 308.559 155.873C310.756 156.83 312.173 157.936 312.214 159.276Z" fill="#3F3D56"/>
<path d="M213.799 203.153H143.211C143.117 203.153 143.027 203.122 142.96 203.066C142.894 203.011 142.857 202.936 142.857 202.858C142.857 202.779 142.894 202.704 142.96 202.649C143.027 202.594 143.117 202.563 143.211 202.563H213.799C213.893 202.563 213.983 202.594 214.05 202.649C214.116 202.704 214.153 202.779 214.153 202.858C214.153 202.936 214.116 203.011 214.05 203.066C213.983 203.122 213.893 203.153 213.799 203.153Z" fill="#F2F2F2"/>
<path d="M213.799 208.463H143.211C143.117 208.463 143.027 208.432 142.96 208.377C142.894 208.322 142.857 208.247 142.857 208.168C142.857 208.09 142.894 208.015 142.96 207.96C143.027 207.904 143.117 207.873 143.211 207.873H213.799C213.893 207.873 213.983 207.904 214.05 207.96C214.116 208.015 214.153 208.09 214.153 208.168C214.153 208.247 214.116 208.322 214.05 208.377C213.983 208.432 213.893 208.463 213.799 208.463Z" fill="#F2F2F2"/>
<path d="M536.481 211.62L433.517 211.003C433.38 211.002 433.249 210.949 433.152 210.854C433.056 210.76 433.002 210.633 433.003 210.5C433.004 210.367 433.059 210.241 433.157 210.147C433.254 210.054 433.386 210.002 433.523 210.003L536.487 210.62C536.624 210.62 536.755 210.674 536.852 210.768C536.948 210.863 537.002 210.99 537.001 211.123C537 211.255 536.945 211.382 536.848 211.475C536.75 211.569 536.618 211.62 536.481 211.62Z" fill="#F2F2F2"/>
<path d="M536.481 235.62L433.517 235.003C433.38 235.002 433.249 234.949 433.152 234.854C433.056 234.76 433.002 234.633 433.003 234.5C433.004 234.367 433.059 234.241 433.157 234.147C433.254 234.054 433.386 234.002 433.523 234.003L536.487 234.62C536.624 234.62 536.755 234.674 536.852 234.768C536.948 234.863 537.002 234.99 537.001 235.123C537 235.255 536.945 235.382 536.848 235.475C536.75 235.569 536.618 235.62 536.481 235.62Z" fill="#F2F2F2"/>
<path d="M213.942 197.59H143.354C143.26 197.59 143.17 197.559 143.104 197.504C143.037 197.448 143 197.373 143 197.295C143 197.217 143.037 197.142 143.104 197.086C143.17 197.031 143.26 197 143.354 197H213.942C214.036 197 214.127 197.031 214.193 197.086C214.259 197.142 214.297 197.217 214.297 197.295C214.297 197.373 214.259 197.448 214.193 197.504C214.127 197.559 214.036 197.59 213.942 197.59Z" fill="#F2F2F2"/>
<path d="M536.365 200.846L433.516 200.004C433.379 200.003 433.248 199.949 433.152 199.855C433.056 199.76 433.003 199.633 433.004 199.5C433.005 199.367 433.061 199.241 433.158 199.148C433.256 199.055 433.388 199.003 433.524 199.004L536.373 199.846C536.51 199.848 536.641 199.901 536.737 199.996C536.833 200.09 536.886 200.218 536.885 200.351C536.884 200.483 536.828 200.61 536.731 200.703C536.633 200.796 536.501 200.848 536.365 200.846Z" fill="#F2F2F2"/>
</g>
<defs>
<clipPath id="clip0">
<rect width="738" height="327" fill="white"/>
</clipPath>
</defs>
</svg>
