<svg width="19" height="18" viewBox="0 0 19 18" fill="none" xmlns="http://www.w3.org/2000/svg">
<path fill-rule="evenodd" clip-rule="evenodd" d="M9.24166 0C4.12794 0 0 4.12794 0 9.24166C0 13.308 2.64928 16.7582 6.34594 17.9904C6.83883 18.052 6.96205 17.8056 6.96205 17.5591V15.9573C4.37439 16.5118 3.81989 14.725 3.81989 14.725C3.38861 13.6777 2.7725 13.3696 2.7725 13.3696C1.90994 12.8151 2.83411 12.8151 2.83411 12.8151C3.75828 12.8767 4.25116 13.7393 4.25116 13.7393C5.05211 15.1563 6.40755 14.725 6.96205 14.4786C7.02366 13.8625 7.27011 13.4928 7.57816 13.2464C5.545 12.9999 3.38861 12.199 3.38861 8.68716C3.38861 7.70138 3.75828 6.83883 4.31277 6.22272C4.18955 5.97627 3.8815 5.05211 4.37439 3.75827C4.37439 3.75827 5.17533 3.51183 6.90044 4.68244C7.63977 4.49761 8.44072 4.37438 9.24166 4.37438C10.0426 4.37438 10.8435 4.49761 11.5829 4.68244C13.3696 3.51183 14.1089 3.75827 14.1089 3.75827C14.6018 5.05211 14.2938 5.97627 14.1705 6.22272C14.7867 6.83883 15.0947 7.70138 15.0947 8.68716C15.0947 12.2606 12.9383 12.9999 10.9052 13.2464C11.2132 13.5544 11.5213 14.1089 11.5213 14.9715V17.4975C11.5213 17.744 11.7061 18.052 12.1374 17.9288C15.834 16.6966 18.4217 13.2464 18.4217 9.18005C18.4833 4.12794 14.3554 0 9.24166 0Z" fill="#E76D53"/>
</svg>
