<svg width="557" height="400" viewBox="0 0 557 400" fill="none" xmlns="http://www.w3.org/2000/svg">
<g clip-path="url(#clip0)">
<path d="M109.112 67.1689C119.845 67.1689 128.546 58.4676 128.546 47.734C128.546 37.0004 119.845 28.2991 109.112 28.2991C98.378 28.2991 89.6768 37.0004 89.6768 47.734C89.6768 58.4676 98.378 67.1689 109.112 67.1689Z" fill="#2F2E41"/>
<path d="M49.918 281.715L61.8583 240.304L65.9232 241.575C65.9232 241.575 61.0962 272.569 53.4747 280.444L49.918 281.715Z" fill="#2F2E41"/>
<path d="M95.3933 59.4203C95.3933 59.4203 96.9176 75.6795 93.3609 80.2524C89.8042 84.8254 95.6474 93.7171 95.6474 93.7171L106.317 106.42L122.069 99.3063L124.355 86.0956L122.831 76.9498C122.831 76.9498 117.496 71.6147 119.782 61.9608C122.069 52.3069 95.3933 59.4203 95.3933 59.4203Z" fill="#FFB9B9"/>
<path opacity="0.1" d="M95.3933 59.4203C95.3933 59.4203 96.9176 75.6795 93.3609 80.2524C89.8042 84.8254 95.6474 93.7171 95.6474 93.7171L106.317 106.42L122.069 99.3063L124.355 86.0956L122.831 76.9498C122.831 76.9498 117.496 71.6147 119.782 61.9608C122.069 52.3069 95.3933 59.4203 95.3933 59.4203Z" fill="black"/>
<path d="M104.539 363.519V373.935L118.512 376.729L117.241 359.454L104.539 363.519Z" fill="#FFB9B9"/>
<path d="M146.457 359.454L143.408 373.935L149.506 378.253L160.176 370.378L158.906 357.929L146.457 359.454Z" fill="#FFB9B9"/>
<path d="M119.782 375.459C119.782 375.459 114.447 366.441 104.539 372.094C104.539 372.094 102.761 382.065 100.982 382.827C99.2039 383.589 89.296 398.07 100.982 399.34C112.669 400.61 118.512 396.799 118.512 396.799C118.512 396.799 116.225 398.767 119.782 397.751C123.339 396.734 121.814 391.145 121.814 391.145L119.782 375.459Z" fill="#2F2E41"/>
<path d="M154.587 369.362C154.587 369.362 146.711 374.951 145.441 372.411C144.171 369.87 142.138 370.124 142.138 370.124C142.138 370.124 135.025 396.94 139.598 398.21C142.542 398.935 145.635 398.775 148.489 397.751C148.489 397.751 154.587 393.481 154.587 396.783C154.587 400.086 171.608 399.848 178.721 399.594C185.835 399.34 182.024 394.005 182.024 394.005L172.624 384.859L161.954 369.362C161.954 369.362 157.127 365.043 154.587 369.362Z" fill="#2F2E41"/>
<path d="M79.6426 199.402L90.3127 301.784C90.3127 301.784 96.1559 364.281 97.1721 365.297C98.1882 366.313 104.794 369.616 119.274 365.297L115.972 283.493L122.069 232.683L136.042 267.742C136.042 267.742 139.344 361.994 141.631 361.994C143.917 361.994 157.89 366.567 161.193 360.978C164.495 355.389 163.987 295.179 163.987 295.179C163.987 295.179 162.463 200.164 151.285 197.116C140.107 194.067 79.6426 199.402 79.6426 199.402Z" fill="#2F2E41"/>
<path d="M109.112 68.8202C118.793 68.8202 126.641 60.972 126.641 51.2907C126.641 41.6094 118.793 33.7612 109.112 33.7612C99.4303 33.7612 91.582 41.6094 91.582 51.2907C91.582 60.972 99.4303 68.8202 109.112 68.8202Z" fill="#FFB9B9"/>
<path d="M110.128 100.068C110.128 100.068 108.35 89.1442 108.35 87.1118C108.35 85.0794 100.474 83.8092 100.474 83.8092C100.474 83.8092 94.3771 76.9498 93.1068 77.966C91.8366 78.9822 72.5287 91.9388 69.4801 93.7171C66.4315 95.4955 63.1289 103.117 63.3829 103.625C63.637 104.133 79.3881 137.16 79.3881 137.16C79.3881 137.16 86.2475 157.484 81.4205 168.154C76.5936 178.824 70.4963 199.91 79.3881 204.229C88.2799 208.548 131.468 217.948 139.344 209.818C147.22 201.689 152.809 199.402 154.841 199.402C156.873 199.402 146.457 164.089 148.744 160.786C151.03 157.484 147.728 136.906 147.728 136.906L159.414 104.133C159.414 104.133 158.398 85.8416 135.279 81.7768L121.449 75.071L110.128 100.068Z" fill="#BD7C58"/>
<path d="M62.621 203.975C62.621 203.975 61.3507 216.169 61.3507 219.726C61.3507 223.283 55.2535 244.115 64.1452 246.656C73.037 249.196 72.2749 218.964 72.2749 218.964V203.467L62.621 203.975Z" fill="#FFB9B9"/>
<path d="M168.052 192.543C168.052 192.543 169.576 204.229 168.814 206.77C168.052 209.31 176.182 231.412 165.257 232.683C154.333 233.953 157.128 206.261 157.128 206.261V192.543L168.052 192.543Z" fill="#FFB9B9"/>
<path d="M60.334 277.65L67.7014 238.526H69.9879C71.5866 240.587 72.6351 243.02 73.0351 245.598C73.4351 248.175 73.1733 250.812 72.2744 253.261C69.2258 261.899 66.6852 277.65 66.6852 277.65H60.334Z" fill="#2F2E41"/>
<path d="M67.1937 100.577L63.383 103.625C63.383 103.625 58.3019 184.413 59.5722 190.51C60.8424 196.608 54.9993 205.245 60.0803 206.008C65.1613 206.77 71.2585 210.072 74.0531 208.04C76.8476 206.007 77.3557 198.64 78.3719 196.862C79.3881 195.083 81.1665 173.997 81.1665 173.997C81.1665 173.997 86.5015 152.911 83.1989 137.16C79.8962 121.409 76.8476 105.404 76.8476 105.404L67.1937 100.577Z" fill="#BD7C58"/>
<path d="M147.727 94.2252L159.413 104.133L168.305 155.96C168.305 155.96 173.894 196.354 169.576 196.862C165.257 197.37 158.651 196.099 155.857 196.862C153.062 197.624 150.776 195.591 150.776 195.591C150.776 195.591 147.727 179.332 147.727 179.078C147.727 178.824 145.695 160.278 145.695 160.278L143.154 139.446L146.965 116.582L147.727 94.2252Z" fill="#BD7C58"/>
<path d="M92.5983 334.049C92.5983 334.049 90.9469 338.792 88.6707 345.25C87.6138 348.253 86.4223 351.629 85.1952 355.072C84.4051 357.297 83.6023 359.551 82.8122 361.751C81.5521 365.269 80.3276 368.648 79.258 371.549C77.8455 375.378 76.6998 378.378 76.085 379.778C73.2904 386.129 22.2263 375.967 18.1614 373.427C14.0966 370.886 13.0804 362.249 12.5723 350.054C12.5698 349.991 12.5672 349.927 12.5672 349.864C12.5012 347.402 13.1287 343.736 14.178 339.435C14.7013 337.286 15.3313 334.979 16.0325 332.583C16.9725 329.369 18.0395 326.001 19.1548 322.647C23.9462 308.242 29.5937 294.163 29.5937 294.163C29.5937 294.163 39.5017 287.304 43.0584 282.731C46.6151 278.158 66.177 274.601 66.177 274.601C71.7661 274.855 84.4687 296.449 89.5497 303.055C94.6307 309.66 92.5983 334.049 92.5983 334.049Z" fill="#3F3D56"/>
<path d="M64.1449 295.433C65.4076 295.433 66.4313 294.41 66.4313 293.147C66.4313 291.884 65.4076 290.86 64.1449 290.86C62.8821 290.86 61.8584 291.884 61.8584 293.147C61.8584 294.41 62.8821 295.433 64.1449 295.433Z" fill="#2F2E41"/>
<path d="M67.7019 296.958C68.4034 296.958 68.9721 296.389 68.9721 295.687C68.9721 294.986 68.4034 294.417 67.7019 294.417C67.0004 294.417 66.4316 294.986 66.4316 295.687C66.4316 296.389 67.0004 296.958 67.7019 296.958Z" fill="#2F2E41"/>
<path d="M88.6713 345.25C87.6145 348.253 86.423 351.629 85.1959 355.072L16.0332 332.583C16.9732 329.369 18.0402 326.001 19.1555 322.647L88.6713 345.25Z" fill="#F2F2F2"/>
<path d="M82.8132 361.751C81.5531 365.269 80.3286 368.648 79.259 371.549L12.5682 349.864C12.5022 347.402 13.1297 343.736 14.1789 339.435L82.8132 361.751Z" fill="#F2F2F2"/>
<path d="M64.1445 293.655C64.1445 293.655 69.2255 316.011 66.1769 335.827C63.1283 355.643 73.7984 374.189 73.7984 374.189" stroke="#2F2E41" stroke-width="3" stroke-miterlimit="10"/>
<path d="M67.7015 295.433C67.7015 295.433 57.7936 331.508 57.5395 336.589C57.2855 341.67 53.2207 378 48.1396 381.81" stroke="#2F2E41" stroke-width="3" stroke-miterlimit="10"/>
<path d="M95.6548 40.5938C95.6548 40.5938 91.6868 30.2772 97.4403 26.9045L99.0275 31.4676C99.0275 31.4676 113.51 22.7381 117.28 24.7221L113.709 29.4836C113.709 29.4836 130.573 29.4836 131.763 36.0307L125.811 36.2291C125.811 36.2291 132.16 40.3954 132.358 47.1409L119.661 47.9345L125.811 51.5056C125.811 51.5056 102.797 54.68 97.2419 45.5537L95.6548 40.5938Z" fill="#2F2E41"/>
<path d="M92.2178 41.0017C92.2178 41.0017 96.7907 50.1475 102.888 47.861C108.985 45.5745 102.888 37.1909 102.888 37.1909L98.8231 35.1585L92.2178 41.0017Z" fill="#2F2E41"/>
<path d="M237.246 164.301L230.094 172.579L254.191 193.401L261.344 185.123L237.246 164.301Z" fill="#E76D53"/>
<path d="M392.153 312.335L385 320.613L406.36 339.07L413.513 330.792L392.153 312.335Z" fill="#E76D53"/>
<path d="M430.747 250.68V251.322C430.733 252.933 430.687 254.538 430.609 256.135C429.218 283.47 417.426 309.238 397.649 328.158C377.872 347.078 351.607 357.718 324.238 357.897C296.869 358.076 270.467 347.781 250.444 329.121C230.421 310.461 218.293 284.85 216.545 257.535C216.399 255.267 216.326 252.982 216.326 250.68C216.288 228.475 223.179 206.811 236.04 188.709C237.068 187.251 238.138 185.819 239.249 184.414C240.015 183.436 240.802 182.481 241.597 181.533C259.695 160.092 285.476 146.6 313.408 143.949C341.34 141.298 369.199 149.701 391.006 167.355C392.297 168.398 393.566 169.477 394.806 170.578C395.798 171.461 396.773 172.363 397.731 173.284C416.595 191.329 428.206 215.651 430.375 241.665C430.623 244.641 430.747 247.646 430.747 250.68Z" fill="#3F3D56"/>
<path d="M323.536 371.383C256.98 371.383 202.833 317.236 202.833 250.68C202.794 220.229 214.303 190.896 235.039 168.596L237.712 171.077C217.603 192.703 206.441 221.149 206.48 250.68C206.48 315.225 258.991 367.736 323.536 367.736C339.219 367.789 354.75 364.665 369.193 358.552C383.635 352.44 396.69 343.465 407.57 332.17L410.188 334.708C398.969 346.355 385.508 355.61 370.615 361.913C355.723 368.216 339.708 371.438 323.536 371.383Z" fill="#E76D53"/>
<path d="M341.04 368.83H310.408V399.462H341.04V368.83Z" fill="#E76D53"/>
<path d="M239.249 184.414C239.301 184.436 239.351 184.465 239.395 184.501C239.971 184.975 239.249 185.887 239.336 186.638C239.439 187.601 240.722 187.812 241.692 187.907C242.662 188.009 243.887 188.79 243.428 189.65C240.992 190.489 238.527 189.665 236.04 188.709C223.179 206.811 216.288 228.475 216.326 250.68C216.326 252.985 216.399 255.27 216.545 257.536C216.749 257.684 216.972 257.805 217.209 257.893C217.938 258.17 218.784 258.119 219.455 258.513C219.988 258.826 220.345 259.381 220.877 259.673C222.402 260.504 224.517 258.907 225.939 259.899C226.306 260.233 226.655 260.589 226.982 260.963C228.295 262.101 230.453 261.335 231.97 262.189C232.948 262.736 233.451 263.83 233.976 264.822C235.281 267.301 237.397 269.737 240.19 269.934C241.071 269.894 241.954 269.923 242.83 270.022C243.691 270.219 244.537 270.97 244.398 271.838C244.157 273.333 244.894 274.966 244.697 276.462C244.34 279.196 240.467 280.393 240.139 283.128C240.138 283.729 240.104 284.331 240.037 284.929C239.862 285.644 239.322 286.227 239.132 286.942C238.768 288.291 239.738 289.64 240.795 290.545C241.86 291.456 243.129 292.244 243.712 293.513C244.325 294.862 244.026 296.43 244.223 297.896C244.661 301.098 247.425 303.468 250.269 305C251.181 305.381 251.99 305.97 252.632 306.721C253.361 307.779 253.288 309.172 253.536 310.433C254.134 313.518 256.731 316.064 256.804 319.207C256.855 321.446 255.615 323.474 254.871 325.581C254.106 327.791 253.878 330.151 254.207 332.466C258.366 335.993 262.786 339.199 267.43 342.057C267.683 341.684 267.868 341.269 267.977 340.832C268.065 340.348 268.004 339.849 267.802 339.401C267.601 338.953 267.267 338.577 266.847 338.323C267.63 338.027 268.343 337.569 268.94 336.981C269.233 336.679 269.426 336.295 269.494 335.881C269.562 335.466 269.501 335.04 269.319 334.661C270.603 334.822 272.127 334.902 272.973 333.918C273.651 333.13 273.607 331.948 273.337 330.949C272.967 329.978 272.722 328.963 272.608 327.93C275.582 328.075 278.563 327.975 281.52 327.631C281.092 326.188 280.119 324.969 278.807 324.232C280.149 324.006 281.367 322.402 281.79 321.111C282.156 319.794 282.176 318.405 281.849 317.077C281.747 316.736 281.732 316.376 281.805 316.027C282.021 315.565 282.4 315.198 282.87 314.999C285.087 313.723 287.304 312.449 289.521 311.177C289.917 310.978 290.277 310.714 290.586 310.397C291.279 309.573 291.177 308.34 290.819 307.326C290.462 306.313 289.893 305.357 289.755 304.292C289.346 301.105 292.759 298.815 293.912 295.81C294.303 294.611 294.515 293.36 294.539 292.098C294.634 290.742 294.641 289.174 293.605 288.306C292.606 287.467 291.053 287.657 290.01 286.876C289.054 286.162 288.726 284.783 287.683 284.207C286.735 283.682 285.554 284.017 284.496 283.769C282.644 283.339 281.477 281.202 279.58 281.005C278.516 280.888 277.305 281.414 276.43 280.794C275.657 280.239 275.628 279.138 275.482 278.205C275.223 276.751 274.525 275.411 273.482 274.365C272.439 273.319 271.101 272.618 269.647 272.355C268.546 272.18 267.35 272.246 266.409 271.641C265.461 271.028 265.03 269.883 264.279 269.03C263.083 267.666 261.187 267.177 259.415 266.762C257.008 266.2 254.604 265.636 252.202 265.069C250.925 264.763 249.277 264.603 248.584 265.726C248.379 266.153 248.237 266.607 248.161 267.075C247.901 267.917 247.381 268.655 246.677 269.184C245.972 269.713 245.119 270.006 244.238 270.022C243.634 268.992 242.657 268.234 241.51 267.907C240.76 267.781 240.019 267.605 239.293 267.381C238.913 267.196 238.576 266.934 238.301 266.613C238.026 266.292 237.819 265.919 237.693 265.515C237.568 265.112 237.526 264.687 237.57 264.267C237.614 263.846 237.744 263.44 237.951 263.071C238.364 262.331 238.523 261.475 238.404 260.636C238.284 259.797 237.891 259.02 237.287 258.425C236.062 257.324 234.29 257.054 232.641 257.164C232.211 256.223 232.933 255.165 233.706 254.48C234.487 253.801 235.427 253.13 235.595 252.109C235.865 250.505 233.816 249.287 232.262 249.761C230.709 250.242 229.717 251.752 229.06 253.24C228.742 254.118 228.308 254.949 227.769 255.712C227.494 256.09 227.119 256.384 226.686 256.561C226.254 256.739 225.78 256.793 225.319 256.719C224.035 256.391 223.547 254.866 223.262 253.583C222.806 251.867 222.576 250.099 222.577 248.324C222.588 246.532 223.3 244.814 224.56 243.54C226.683 241.585 229.95 241.775 232.816 242.089C232.509 241.679 232.362 241.172 232.402 240.661C232.443 240.151 232.668 239.673 233.035 239.317C233.419 238.977 233.88 238.735 234.378 238.613C234.876 238.491 235.397 238.492 235.894 238.617C236.758 238.796 237.537 239.261 238.104 239.937C238.921 240.929 239.154 242.278 239.767 243.401C240.387 244.532 241.772 245.494 242.903 244.889C243.888 244.364 244.041 243.007 243.8 241.921C243.552 240.841 243.034 239.784 243.122 238.675C243.289 236.568 245.485 235.291 247.417 234.423C249.35 233.555 251.56 232.381 251.866 230.281C251.88 229.872 251.959 229.469 252.1 229.085C252.314 228.742 252.613 228.461 252.968 228.268C258.605 224.541 264.345 220.763 270.792 218.728C271.128 218.619 271.164 218.736 271.507 218.655C271.988 218.378 271.667 217.612 271.208 217.306C270.748 217 270.136 216.759 270.019 216.219C269.939 215.826 270.172 215.432 270.231 215.031C270.246 214.788 270.201 214.546 270.101 214.325C270.001 214.104 269.848 213.911 269.656 213.762C269.464 213.614 269.238 213.515 268.999 213.474C268.76 213.434 268.514 213.452 268.283 213.528C267.766 212.843 268.787 212.048 269.618 211.814C272.107 211.132 274.662 210.717 277.239 210.574C277.537 210.525 277.842 210.577 278.107 210.72C278.297 210.903 278.409 211.152 278.421 211.415C278.434 211.678 278.345 211.936 278.173 212.135C277.822 212.525 277.434 212.879 277.013 213.193C276.595 213.599 276.296 214.113 276.149 214.677C276.003 215.242 276.014 215.836 276.182 216.394C277.531 217.08 278.99 217.787 280.485 217.547C281.973 217.306 283.293 215.629 282.593 214.294C281.944 213.047 279.982 212.762 279.646 211.399C279.252 209.801 281.513 208.379 281.003 206.818C280.784 206.133 280.098 205.724 279.573 205.236C278.955 204.627 278.535 203.847 278.367 202.996C278.199 202.145 278.292 201.264 278.632 200.466C277.779 200.615 276.902 200.558 276.074 200.299C275.247 200.04 274.494 199.587 273.877 198.978C272.74 197.833 271.835 196.017 270.216 196.076C268.736 196.119 267.459 197.848 266.073 197.323C265.731 197.191 265.373 196.929 265.045 197.082C264.937 197.152 264.846 197.245 264.779 197.355C264.712 197.465 264.671 197.588 264.659 197.717C264.309 199.401 264.914 201.319 263.995 202.778C262.996 204.361 260.684 204.579 259.473 206.009C258.817 206.782 258.561 207.825 257.956 208.642C257.351 209.459 256.074 209.984 255.345 209.269C255.702 208.537 255.8 207.705 255.623 206.91C255.445 206.115 255.003 205.404 254.368 204.893C253.696 204.452 252.971 204.099 252.209 203.843C251.358 203.484 250.549 203.034 249.795 202.501C249.419 202.272 249.114 201.944 248.913 201.553C248.753 201.061 248.774 200.528 248.971 200.05C249.34 198.997 249.99 198.064 250.849 197.352C251.709 196.64 252.746 196.176 253.85 196.01C254.813 195.879 255.936 195.922 256.578 195.186C256.913 194.799 257.088 194.209 257.584 194.055C257.897 193.99 258.222 194.028 258.51 194.165C259.714 194.588 260.91 195.011 262.113 195.434C262.514 195.618 262.958 195.691 263.397 195.645C263.614 195.617 263.813 195.507 263.953 195.338C264.092 195.169 264.162 194.953 264.148 194.734C264.031 194.136 263.112 193.851 263.2 193.246C263.242 193.048 263.347 192.869 263.499 192.735C264.8 191.352 266.39 190.273 268.157 189.575C269.923 188.878 271.822 188.58 273.717 188.702C274.169 189.453 273.454 190.336 272.849 190.97C272.251 191.612 271.769 192.75 272.499 193.239C272.793 193.393 273.122 193.468 273.454 193.457C274.341 193.576 275.203 193.837 276.007 194.23C277.254 194.77 278.479 195.368 279.675 196.01C279.499 195.228 279.529 194.414 279.763 193.647C279.895 193.271 280.162 192.957 280.512 192.767C280.863 192.577 281.272 192.524 281.659 192.619C282.374 192.896 282.739 193.844 283.504 193.931C284.518 194.048 284.919 192.546 284.496 191.612C284.073 190.679 283.227 189.906 283.162 188.877C283.11 188.192 283.373 187.338 282.826 186.923C282.632 186.794 282.409 186.714 282.177 186.689C277.597 185.85 273.014 185.009 268.429 184.166C267.612 184.013 266.438 184.129 266.402 184.953C266.38 185.42 266.796 185.88 266.613 186.303C266.416 186.755 265.774 186.718 265.308 186.879C264.957 187.038 264.668 187.307 264.483 187.645C264.299 187.983 264.23 188.372 264.287 188.753C264.411 189.512 264.706 190.232 265.147 190.861C264.25 190.489 262.901 190.423 262.004 190.044C261.873 189.005 261.609 187.988 261.216 187.017C261.194 186.863 261.138 186.715 261.052 186.585C260.966 186.454 260.853 186.344 260.72 186.262C260.588 186.18 260.439 186.128 260.284 186.11C260.129 186.092 259.971 186.108 259.823 186.157C258.642 186.339 257.46 186.514 256.279 186.696C255.982 186.711 255.698 186.821 255.469 187.01C255.01 187.499 255.462 188.279 255.447 188.95C255.405 189.325 255.246 189.678 254.994 189.959C254.742 190.24 254.408 190.435 254.04 190.518C253.297 190.669 252.531 190.659 251.793 190.489C250.138 190.234 248.49 189.978 246.834 189.723C248.295 189.258 249.595 188.388 250.583 187.214C251.239 186.441 251.589 184.997 250.641 184.633C250.361 184.556 250.069 184.533 249.78 184.567C247.534 184.581 245.762 182.707 243.661 181.912C243.001 181.666 242.302 181.537 241.597 181.533L239.249 184.414Z" fill="#E76D53"/>
<path d="M430.608 256.135C430.351 256.48 430.013 256.757 429.624 256.942C429.235 257.126 428.806 257.212 428.376 257.193C426.093 256.996 425.131 253.707 422.87 253.335C422.67 253.283 422.458 253.304 422.272 253.393C421.936 253.575 421.878 254.027 421.856 254.407C421.761 256.288 421.681 258.243 422.418 259.979C423.49 262.517 426.269 264.646 425.685 267.338C422.549 265.886 420.915 262.364 420.179 258.987C419.435 255.61 419.318 252.066 417.991 248.871C416.977 250.162 414.862 249.097 413.943 247.741C413.068 246.457 412.528 244.969 411.682 243.664C410.836 242.366 409.538 241.199 407.992 241.126C406.365 241.053 404.95 242.169 403.711 243.226C402.632 244.023 401.726 245.03 401.049 246.187C400.181 247.938 400.407 249.994 400.363 251.942C400.319 254.042 399.874 256.266 398.438 257.813C397.001 259.352 394.353 259.891 392.771 258.498C392.006 257.7 391.46 256.718 391.188 255.647C389.467 250.632 388.036 245.524 386.9 240.345C386.637 241.527 385.594 243.051 384.602 242.358C384.381 242.17 384.202 241.936 384.077 241.673C382.225 238.544 378.804 236.662 375.34 235.532C371.883 234.409 368.244 233.884 364.823 232.644C362.905 231.947 361.072 231.034 359.36 229.923C358.926 230.564 358.672 231.31 358.626 232.083C358.579 232.855 358.743 233.626 359.098 234.314C359.482 234.987 360.078 235.514 360.793 235.813C361.508 236.113 362.302 236.168 363.051 235.969C363.809 235.721 364.451 235.196 365.202 234.934C365.954 234.679 366.967 234.803 367.295 235.532C367.616 236.225 367.135 237.063 367.376 237.793C367.733 238.894 369.403 238.982 369.987 239.988C370.158 240.387 370.198 240.83 370.099 241.252C370.001 241.675 369.77 242.055 369.44 242.336C368.768 242.884 368.028 243.34 367.237 243.693C364.787 245.057 363.044 247.383 360.899 249.192C358.755 251.008 355.728 252.328 353.176 251.169C353.781 248.083 350.113 245.823 349.434 242.752C349.208 241.738 349.325 240.666 349.011 239.682C348.552 238.252 347.283 237.275 346.247 236.196C344.989 234.87 344.009 233.307 343.364 231.597C342.718 229.888 342.422 228.066 342.491 226.24C342.55 224.971 342.783 223.68 342.491 222.44C342.207 221.208 341.178 220.012 339.909 220.063C337.014 220.194 333.36 220.413 331.843 217.941C331.296 217.058 331.063 215.767 331.85 215.089C332.158 214.894 332.502 214.762 332.861 214.7C333.22 214.639 333.588 214.65 333.944 214.732C336.124 214.943 338.298 215.162 340.478 215.373C342.003 215.519 343.651 215.643 344.964 214.848C346.276 214.053 346.845 211.931 345.627 210.99C344.745 210.305 343.155 210.341 342.892 209.254C342.681 208.343 343.687 207.314 343.14 206.549C342.754 206.009 341.879 206.155 341.346 206.563C340.882 207.045 340.376 207.487 339.836 207.883C338.794 208.423 337.554 207.905 336.431 207.555C335.307 207.205 333.805 207.176 333.265 208.219C332.653 209.378 333.798 210.91 333.2 212.077C332.397 213.616 329.699 212.741 328.576 214.068C327.292 215.585 329.451 217.86 329.021 219.8C328.467 220.075 327.851 220.201 327.233 220.167C326.616 220.132 326.018 219.938 325.498 219.603C324.988 219.256 324.581 218.777 324.322 218.217C324.062 217.657 323.96 217.037 324.025 216.424C324.127 215.548 324.586 214.651 324.28 213.827C323.95 213.191 323.404 212.692 322.741 212.42C320.626 211.245 318.511 210.076 316.396 208.912C315.805 210.006 316.549 211.355 317.483 212.179C318.409 212.996 319.576 213.616 320.189 214.695C320.576 215.443 320.664 216.311 320.434 217.122C320.203 217.932 319.672 218.624 318.949 219.056C318.857 219.119 318.753 219.162 318.643 219.181C318.534 219.2 318.422 219.194 318.314 219.166C318.213 219.106 318.125 219.027 318.055 218.934C317.985 218.84 317.934 218.733 317.906 218.619C316.79 215.753 315.105 212.93 312.421 211.435C309.73 209.933 305.872 210.246 304.107 212.762C303.691 213.36 303.407 214.046 303.042 214.68C301.109 218.043 296.952 219.633 293.072 219.53C292.693 219.555 292.315 219.466 291.986 219.275C291.358 218.845 291.388 217.926 291.482 217.167C291.621 216.095 291.752 215.031 291.891 213.958C291.894 213.304 292.147 212.675 292.598 212.201C293.32 211.632 294.356 211.989 295.275 211.975C295.968 211.944 296.635 211.699 297.185 211.275C297.735 210.851 298.14 210.267 298.345 209.604C298.53 208.935 298.529 208.228 298.341 207.56C298.153 206.891 297.787 206.287 297.28 205.812C296.865 205.418 296.303 204.922 296.522 204.39C296.611 204.243 296.731 204.117 296.873 204.022C297.015 203.926 297.177 203.862 297.346 203.835C298.987 203.361 300.73 203.237 302.342 202.669C303.961 202.107 305.529 200.955 305.916 199.284C306.032 198.774 306.083 198.154 306.543 197.899C306.775 197.806 307.022 197.756 307.272 197.753C308.149 197.627 308.947 197.178 309.51 196.494C310.073 195.81 310.359 194.94 310.313 194.055C311.087 193.515 312.173 193.917 312.924 194.493C313.668 195.069 314.332 195.827 315.244 196.075C316.943 196.542 318.584 195.032 320.349 195.025C321.093 195.025 321.859 195.288 322.551 195.033C323.259 194.777 323.682 194.077 324.222 193.559C324.769 193.034 325.717 192.721 326.22 193.282C326.074 192.225 325.936 191.174 325.79 190.124C326.649 190.341 327.545 190.37 328.416 190.212C329.288 190.053 330.116 189.71 330.844 189.205C329.006 188.585 327.175 187.965 325.338 187.345C325.144 187.298 324.966 187.203 324.82 187.068C324.419 186.638 324.82 185.967 325.141 185.478C325.921 184.304 326.052 182.371 324.769 181.788C323.893 181.387 322.894 181.868 322.056 182.335C320.714 183.079 319.372 183.83 318.03 184.574C317.906 185.34 318.839 185.777 319.415 186.288C319.767 186.599 320.015 187.01 320.128 187.465C320.242 187.921 320.215 188.4 320.05 188.839C319.886 189.279 319.593 189.659 319.209 189.928C318.824 190.198 318.368 190.345 317.898 190.35C318.163 190.695 318.346 191.095 318.436 191.52C318.526 191.946 318.519 192.386 318.416 192.808C317.519 192.874 316.615 192.939 315.71 193.005C315.56 193.035 315.406 193.035 315.255 193.005C315.105 192.975 314.962 192.915 314.835 192.83C314.544 192.575 314.587 192.122 314.514 191.743C314.394 191.29 314.141 190.883 313.787 190.575C313.434 190.267 312.996 190.072 312.531 190.015C311.601 189.91 310.661 189.997 309.766 190.27C309.378 190.407 308.952 190.397 308.57 190.241C308.354 190.098 308.19 189.888 308.104 189.643C307.945 189.143 307.918 188.61 308.025 188.096C308.133 187.583 308.371 187.106 308.716 186.711C309.417 185.933 310.188 185.223 311.021 184.589C312.908 182.936 314.295 180.789 315.025 178.389C316.513 177.762 318.052 176.916 319.547 176.289C320.749 175.732 322.008 175.309 323.303 175.027C324.521 174.841 325.755 174.782 326.986 174.852C328.663 174.881 330.348 174.91 332.025 174.947C333.523 174.884 335.019 175.099 336.438 175.581C337.816 176.15 339.034 177.383 339.129 178.871C339.158 179.04 339.143 179.214 339.085 179.376C339.028 179.539 338.93 179.683 338.801 179.797C338.607 179.904 338.387 179.955 338.166 179.943C336.773 179.987 336.183 180.337 334.79 180.388C335.672 181.329 336.664 182.32 337.948 182.488C340.208 182.78 341.835 180.439 342.878 178.404C342.915 178.922 343.153 179.405 343.542 179.749C343.93 180.094 344.438 180.273 344.956 180.249C345.515 180.153 346.048 179.945 346.524 179.636C351.01 177.185 356.035 175.887 361.147 175.859C361.097 175.472 361.192 175.08 361.415 174.759C361.637 174.438 361.971 174.212 362.351 174.123C363.394 173.919 364.327 174.816 364.83 175.749C365.326 176.683 365.64 177.762 366.442 178.462C367.237 179.162 368.776 179.126 369.09 178.119C369.396 177.149 368.382 176.318 367.543 175.742C366.697 175.173 365.815 174.116 366.384 173.27C370.672 172.314 374.997 171.366 379.395 171.176C380.142 171.199 380.887 171.07 381.583 170.797C381.928 170.651 382.215 170.395 382.399 170.07C382.584 169.744 382.656 169.366 382.604 168.996C381.644 169.22 380.64 169.153 379.718 168.805C378.796 168.457 377.998 167.843 377.426 167.041C381.94 166.669 386.666 166.341 391.006 167.355L394.806 170.578C394.084 171.33 393.121 172.037 393.646 172.788C393.819 172.961 394.029 173.092 394.26 173.171C394.492 173.251 394.738 173.277 394.981 173.248C395.9 173.262 396.818 173.284 397.73 173.284C416.594 191.328 428.206 215.651 430.375 241.665C428.843 241.607 427.435 243.547 427.632 245.239C427.866 247.201 429.281 248.776 430.294 250.468C430.462 250.743 430.613 251.028 430.747 251.322L430.608 256.135Z" fill="#E76D53"/>
<path d="M0 399.373H556.773" stroke="#3F3D56" stroke-width="2" stroke-miterlimit="10"/>
<path d="M379.213 213.48C384.947 213.48 389.595 208.832 389.595 203.098C389.595 197.364 384.947 192.715 379.213 192.715C373.478 192.715 368.83 197.364 368.83 203.098C368.83 208.832 373.478 213.48 379.213 213.48Z" fill="#3F3D56"/>
<path d="M412.563 183.412C420.121 183.412 426.249 177.285 426.249 169.726C426.249 162.168 420.121 156.04 412.563 156.04C405.004 156.04 398.877 162.168 398.877 169.726C398.877 177.285 405.004 183.412 412.563 183.412Z" fill="white"/>
<path d="M426.404 155.538C422.731 151.955 417.784 149.977 412.653 150.041C407.522 150.105 402.626 152.204 399.043 155.877C391.58 163.527 380.927 202.156 380.927 202.156C380.927 202.156 419.281 190.549 426.743 182.9C430.326 179.227 432.304 174.28 432.24 169.149C432.177 164.018 430.077 159.122 426.404 155.538ZM406.302 176.145C405.032 174.906 404.159 173.319 403.791 171.584C403.424 169.85 403.579 168.045 404.237 166.398C404.896 164.751 406.027 163.337 407.49 162.333C408.952 161.33 410.679 160.782 412.452 160.76C414.225 160.738 415.965 161.243 417.452 162.21C418.939 163.177 420.105 164.563 420.804 166.193C421.503 167.823 421.703 169.623 421.379 171.367C421.054 173.11 420.22 174.718 418.982 175.988C417.321 177.69 415.052 178.663 412.674 178.692C410.296 178.722 408.004 177.805 406.302 176.145Z" fill="#20CD51"/>
</g>
<defs>
<clipPath id="clip0">
<rect width="556.773" height="400" fill="white"/>
</clipPath>
</defs>
</svg>
