<svg width="419" height="400" viewBox="0 0 419 400" fill="none" xmlns="http://www.w3.org/2000/svg">
<g clip-path="url(#clip0)">
<path d="M389.244 106.271V83.8123H385.751V106.271C384.75 106.676 383.92 107.417 383.405 108.367C382.89 109.317 382.721 110.416 382.927 111.477C383.133 112.538 383.702 113.493 384.536 114.181C385.37 114.868 386.417 115.244 387.498 115.244C388.578 115.244 389.625 114.868 390.459 114.181C391.293 113.493 391.862 112.538 392.068 111.477C392.274 110.416 392.106 109.317 391.59 108.367C391.075 107.417 390.245 106.676 389.244 106.271Z" fill="#E6E6E6"/>
<path d="M397.392 332.921H373.529V43.0702H364.217V332.921H340.353C337.525 332.921 334.725 333.478 332.112 334.56C329.5 335.643 327.126 337.229 325.126 339.229C323.126 341.228 321.54 343.602 320.458 346.215C319.375 348.828 318.818 351.628 318.818 354.456V354.456H418.928V354.456C418.928 351.628 418.371 348.828 417.288 346.215C416.206 343.602 414.62 341.228 412.62 339.229C410.62 337.229 408.246 335.643 405.634 334.56C403.021 333.478 400.22 332.921 397.392 332.921Z" fill="#E6E6E6"/>
<path d="M318.866 86.1404H418.879L412.763 9.69642C412.539 7.06048 411.337 4.60361 409.394 2.80917C407.45 1.01473 404.905 0.0126243 402.26 0H335.485C332.84 0.0126257 330.295 1.01473 328.351 2.80917C326.408 4.60361 325.206 7.06048 324.982 9.69642L318.866 86.1404Z" fill="#E76D53"/>
<path d="M35.5605 266.299H340.823V235.134C340.823 150.973 272.353 82.5027 188.192 82.5027C104.031 82.5027 35.5605 150.973 35.5605 235.134V266.299Z" fill="#885C34"/>
<path opacity="0.2" d="M35.5605 266.299H340.823V235.134C340.823 150.973 272.353 82.5027 188.192 82.5027C104.031 82.5027 35.5605 150.973 35.5605 235.134V266.299Z" fill="black"/>
<path d="M75.124 277.087H310.05C309.827 264.728 304.764 252.949 295.949 244.282C287.134 235.615 275.271 230.753 262.909 230.739H122.265C109.903 230.753 98.04 235.615 89.2252 244.282C80.4103 252.949 75.3473 264.728 75.124 277.087Z" fill="#593C22"/>
<path d="M47.1478 272.293C73.1869 272.293 94.2957 251.184 94.2957 225.145C94.2957 199.106 73.1869 177.997 47.1478 177.997C21.1088 177.997 0 199.106 0 225.145C0 251.184 21.1088 272.293 47.1478 272.293Z" fill="#885C34"/>
<path d="M333.231 272.293C359.27 272.293 380.379 251.184 380.379 225.145C380.379 199.106 359.27 177.997 333.231 177.997C307.192 177.997 286.083 199.106 286.083 225.145C286.083 251.184 307.192 272.293 333.231 272.293Z" fill="#885C34"/>
<path d="M297.671 249.118V266.699H79.9116V249.118H31.1655V334.806C31.1655 340.056 33.2511 345.091 36.9635 348.804C40.6758 352.516 45.7109 354.602 50.9609 354.602H326.621C329.221 354.602 331.795 354.09 334.197 353.095C336.598 352.1 338.781 350.642 340.619 348.804C342.457 346.966 343.915 344.783 344.91 342.382C345.905 339.98 346.417 337.406 346.417 334.806V249.118H297.671Z" fill="#885C34"/>
<path opacity="0.2" d="M47.148 234.734C52.4441 234.734 56.7374 230.441 56.7374 225.145C56.7374 219.849 52.4441 215.555 47.148 215.555C41.8519 215.555 37.5586 219.849 37.5586 225.145C37.5586 230.441 41.8519 234.734 47.148 234.734Z" fill="black"/>
<path opacity="0.2" d="M333.231 234.734C338.528 234.734 342.821 230.441 342.821 225.145C342.821 219.849 338.528 215.555 333.231 215.555C327.935 215.555 323.642 219.849 323.642 225.145C323.642 230.441 327.935 234.734 333.231 234.734Z" fill="black"/>
<path d="M205.56 77.1169C205.56 77.1169 206.503 95.0287 213.102 98.7996C219.701 102.57 213.102 128.024 213.102 128.024L181.992 128.967L180.106 98.7996C180.106 98.7996 183.877 86.5442 181.992 80.8878C180.106 75.2315 205.56 77.1169 205.56 77.1169Z" fill="#FFB8B8"/>
<path d="M240.441 325.996L229.128 339.194L247.04 356.163L256.467 337.309L240.441 325.996Z" fill="#FFB8B8"/>
<path d="M160.309 325.996L171.622 339.194L153.71 356.163L144.283 337.309L160.309 325.996Z" fill="#FFB8B8"/>
<path d="M234.313 201.085C234.313 201.085 302.189 223.711 298.418 245.393C294.647 267.076 265.423 343.437 265.423 343.437C265.423 343.437 249.397 343.437 237.141 326.467L245.626 307.613C245.626 307.613 241.855 297.243 248.454 295.358C255.053 293.472 258.824 260.477 258.824 260.477C258.824 260.477 210.745 256.706 200.375 238.794L181.521 193.543L234.313 201.085Z" fill="#2F2E41"/>
<path d="M166.437 201.085C166.437 201.085 98.5608 223.711 102.332 245.393C106.103 267.076 135.327 343.437 135.327 343.437C135.327 343.437 151.353 343.437 163.609 326.467L155.124 307.613C155.124 307.613 158.895 297.243 152.296 295.358C145.697 293.472 141.926 260.477 141.926 260.477C141.926 260.477 190.005 256.706 200.375 238.794L219.229 193.543L166.437 201.085Z" fill="#2F2E41"/>
<path d="M243.74 349.093C243.74 349.093 253.168 340.608 254.11 347.207C255.053 353.806 253.168 380.203 253.168 380.203C253.168 380.203 262.595 400 248.454 400C234.313 400 227.714 384.916 229.6 369.833C231.485 354.749 223 349.093 223 349.093C223 349.093 212.631 328.353 223 326.468C233.37 324.582 237.141 329.296 237.141 329.296C237.141 329.296 233.37 346.265 243.74 349.093Z" fill="#2F2E41"/>
<path d="M157.01 349.093C157.01 349.093 147.583 340.608 146.64 347.207C145.697 353.806 147.583 380.203 147.583 380.203C147.583 380.203 138.155 400 152.296 400C166.437 400 173.036 384.916 171.151 369.833C169.265 354.749 177.75 349.093 177.75 349.093C177.75 349.093 188.12 328.353 177.75 326.468C167.38 324.582 163.609 329.296 163.609 329.296C163.609 329.296 167.38 346.265 157.01 349.093Z" fill="#2F2E41"/>
<path d="M190.948 87.9582C202.923 87.9582 212.63 78.2506 212.63 66.2756C212.63 54.3006 202.923 44.5929 190.948 44.5929C178.973 44.5929 169.265 54.3006 169.265 66.2756C169.265 78.2506 178.973 87.9582 190.948 87.9582Z" fill="#FBBEBE"/>
<path d="M194.247 103.513L181.049 93.1432L148.996 108.227L148.054 194.015C148.054 194.015 128.257 203.442 133.913 215.697C133.913 215.697 150.882 219.468 158.424 227.01C165.965 234.552 208.388 224.182 226.3 218.526C244.212 212.869 248.925 206.27 248.925 206.27L231.014 180.817L241.383 115.769L209.334 94.2212L194.247 103.513Z" fill="#ECC2AB"/>
<path d="M217.308 51.5179C216.836 50.8768 216.404 50.2068 216.016 49.5117C215.343 47.8742 216.405 45.9446 215.413 44.4156C214.4 42.8547 211.828 42.5255 210.079 41.4652C207.383 39.8317 206.894 36.6263 204.368 34.8262C202.549 33.5292 199.954 33.1796 197.523 33.2536C195.091 33.3276 192.692 33.7672 190.26 33.8154C186.976 33.8887 183.719 33.2225 180.728 31.8661L182.522 35.3763C180.528 34.9416 178.623 34.1695 176.889 33.0931C176.096 34.0775 177.548 35.5717 176.647 36.4951C176.278 36.7929 175.842 36.9954 175.376 37.0845C171.915 38.0681 168.656 39.658 165.751 41.7805C165.078 42.2083 164.522 42.7957 164.131 43.4905C163.663 44.527 164.078 45.6718 164.042 46.7739C163.978 48.7765 162.449 50.5228 161.364 52.3268C160.279 54.1308 159.694 56.4697 161.303 58.0008C161.694 58.3118 162.069 58.6427 162.427 58.9922C164.039 60.8938 161.185 63.6787 162.561 65.6966C163.158 66.5728 164.382 67.0162 165.446 67.5338C167.484 68.4865 169.198 70.0146 170.378 71.9298L169.551 65.8602C169.508 65.7102 169.5 65.5521 169.529 65.3986C169.557 65.2451 169.622 65.1004 169.716 64.9761C170.117 64.5679 170.955 64.7306 171.508 64.4603C172.116 64.1628 172.162 63.4805 172.138 62.909L171.952 58.5023C171.868 56.5208 171.845 56.2576 173.305 54.6581C174.324 53.5407 175.928 52.8665 177.539 52.3706C181.221 51.2375 185.18 50.8456 189.094 50.4626C193.639 50.0178 198.757 47.8125 202.287 50.154C205.176 52.0707 206.137 55.2213 207.529 58.0154C208.78 60.5269 211.992 67.9216 214.665 63.9188C216.345 61.405 218.913 54.3168 217.308 51.5179Z" fill="#2F2E41"/>
<path d="M194.67 59.9857C194.581 59.9858 194.495 60.0213 194.432 60.0844C194.369 60.1476 194.333 60.2332 194.333 60.3225V69.4005C194.333 69.4898 194.369 69.5754 194.432 69.6386C194.495 69.7017 194.581 69.7372 194.67 69.7373H210.297C210.387 69.7372 210.472 69.7017 210.535 69.6386C210.599 69.5754 210.634 69.4898 210.634 69.4005V60.3225C210.634 60.2332 210.599 60.1476 210.535 60.0844C210.472 60.0213 210.387 59.9858 210.297 59.9857L194.67 59.9857Z" fill="#3F3D56"/>
<path d="M196.416 60.7863C196.25 60.7865 196.09 60.8527 195.973 60.9704C195.855 61.0881 195.789 61.2477 195.789 61.4141V68.3089C195.789 68.4754 195.855 68.6349 195.973 68.7526C196.09 68.8703 196.25 68.9365 196.416 68.9367H208.551C208.717 68.9365 208.877 68.8703 208.995 68.7526C209.112 68.6349 209.179 68.4754 209.179 68.3089V61.4141C209.179 61.2477 209.112 61.0881 208.995 60.9704C208.877 60.8527 208.717 60.7865 208.551 60.7863H196.416Z" fill="#FF6584"/>
<path d="M194.846 62.9761H186.706V64.8615H194.846V62.9761Z" fill="#3F3D56"/>
<path d="M172.541 59.9857C172.452 59.9859 172.366 60.0214 172.303 60.0845C172.24 60.1476 172.204 60.2332 172.204 60.3225V69.4005C172.204 69.4898 172.24 69.5754 172.303 69.6385C172.366 69.7016 172.452 69.7371 172.541 69.7373H188.168C188.258 69.7371 188.343 69.7016 188.406 69.6385C188.47 69.5754 188.505 69.4898 188.505 69.4005V60.3225C188.505 60.2332 188.47 60.1476 188.406 60.0845C188.343 60.0214 188.258 59.9859 188.168 59.9857L172.541 59.9857Z" fill="#3F3D56"/>
<path d="M174.287 60.7863C174.121 60.7865 173.961 60.8526 173.843 60.9703C173.726 61.088 173.659 61.2476 173.659 61.4141V68.3089C173.659 68.4754 173.726 68.635 173.843 68.7527C173.961 68.8704 174.121 68.9366 174.287 68.9367H186.421C186.588 68.9366 186.748 68.8704 186.865 68.7527C186.983 68.635 187.049 68.4754 187.05 68.3089V61.4141C187.049 61.2476 186.983 61.088 186.865 60.9703C186.748 60.8526 186.588 60.7865 186.421 60.7863H174.287Z" fill="#6C63FF"/>
<path d="M163.998 173.299H218.127C220.288 173.299 222.361 174.158 223.889 175.686C225.417 177.214 226.275 179.287 226.275 181.448H155.85C155.85 179.287 156.708 177.214 158.236 175.686C159.764 174.158 161.837 173.299 163.998 173.299Z" fill="#9A99A2"/>
<path d="M221.91 172.717C221.593 172.719 221.279 172.772 220.979 172.876C220.877 172.463 220.626 172.101 220.275 171.86C219.924 171.619 219.497 171.514 219.075 171.566C218.652 171.619 218.263 171.824 217.981 172.143C217.699 172.462 217.544 172.874 217.545 173.299C217.545 173.308 217.547 173.316 217.547 173.325C217.329 173.346 217.114 173.39 216.905 173.458C216.846 173.223 216.739 173.003 216.59 172.811C216.442 172.62 216.255 172.461 216.042 172.346C216.601 172.036 217.044 171.552 217.302 170.967C217.629 171 217.959 170.963 218.271 170.859C218.583 170.755 218.87 170.587 219.113 170.365C219.355 170.143 219.548 169.872 219.679 169.571C219.81 169.269 219.876 168.943 219.873 168.614C219.87 168.286 219.797 167.961 219.66 167.662C219.523 167.363 219.324 167.097 219.077 166.88C218.83 166.663 218.54 166.501 218.226 166.403C217.911 166.306 217.58 166.276 217.254 166.315C216.937 166.316 216.623 166.37 216.323 166.474C216.269 166.245 216.17 166.029 216.03 165.84C215.891 165.65 215.715 165.491 215.512 165.372C215.31 165.253 215.085 165.176 214.852 165.145C214.619 165.115 214.382 165.133 214.155 165.197C213.929 165.261 213.718 165.37 213.535 165.518C213.353 165.665 213.201 165.848 213.091 166.056C212.981 166.264 212.914 166.492 212.895 166.726C212.875 166.96 212.903 167.196 212.977 167.419C212.907 167.468 212.843 167.522 212.778 167.576C212.448 167.293 212.021 167.151 211.587 167.18C211.363 166.537 210.921 165.994 210.336 165.645C209.752 165.296 209.063 165.163 208.391 165.271C207.719 165.379 207.107 165.719 206.66 166.233C206.214 166.747 205.963 167.402 205.951 168.083C205.718 168.101 205.487 168.147 205.265 168.22C205.24 168.121 205.206 168.025 205.164 167.932C205.394 167.73 205.579 167.481 205.706 167.202C205.834 166.924 205.901 166.621 205.904 166.315C205.863 165.66 205.565 165.047 205.075 164.611C204.584 164.175 203.941 163.951 203.285 163.987C202.968 163.988 202.654 164.042 202.354 164.145C202.301 163.917 202.201 163.701 202.062 163.512C201.922 163.322 201.746 163.163 201.543 163.044C201.341 162.924 201.116 162.847 200.883 162.817C200.65 162.787 200.413 162.805 200.187 162.869C199.961 162.933 199.75 163.042 199.567 163.189C199.384 163.337 199.233 163.52 199.123 163.728C199.012 163.936 198.946 164.164 198.926 164.398C198.906 164.632 198.934 164.868 199.008 165.091C198.642 165.346 198.339 165.681 198.123 166.072C197.907 166.462 197.785 166.897 197.764 167.343C197.74 167.365 197.712 167.383 197.688 167.406C197.732 167.24 197.754 167.069 197.756 166.897C197.715 166.242 197.417 165.629 196.926 165.193C196.435 164.757 195.792 164.533 195.137 164.569C194.82 164.57 194.505 164.624 194.206 164.727C194.152 164.499 194.053 164.283 193.913 164.094C193.774 163.904 193.598 163.745 193.395 163.626C193.192 163.506 192.968 163.429 192.735 163.399C192.501 163.369 192.265 163.387 192.038 163.451C191.812 163.515 191.601 163.624 191.418 163.771C191.235 163.919 191.084 164.102 190.974 164.31C190.864 164.518 190.797 164.746 190.777 164.98C190.758 165.214 190.786 165.45 190.86 165.673C190.474 165.94 190.158 166.297 189.94 166.713C189.721 167.129 189.607 167.591 189.607 168.061C189.607 168.531 189.721 168.993 189.94 169.409C190.158 169.825 190.474 170.182 190.86 170.449C190.742 170.787 190.742 171.155 190.86 171.494C190.568 171.697 190.316 171.952 190.115 172.245C190.008 171.854 189.766 171.514 189.433 171.282C189.1 171.05 188.697 170.943 188.293 170.978C187.889 171.013 187.51 171.188 187.222 171.473C186.934 171.758 186.754 172.136 186.715 172.539C186.482 172.403 186.23 172.301 185.967 172.237C186.438 171.926 186.81 171.485 187.036 170.967C187.363 171 187.694 170.963 188.006 170.859C188.318 170.755 188.604 170.587 188.847 170.365C189.09 170.143 189.283 169.872 189.414 169.571C189.545 169.269 189.611 168.943 189.607 168.614C189.604 168.286 189.531 167.961 189.394 167.662C189.257 167.363 189.058 167.097 188.811 166.88C188.564 166.663 188.274 166.501 187.96 166.403C187.646 166.306 187.315 166.276 186.988 166.315C186.671 166.316 186.357 166.37 186.058 166.474C186.004 166.245 185.904 166.029 185.765 165.84C185.625 165.65 185.449 165.491 185.247 165.372C185.044 165.253 184.819 165.176 184.586 165.145C184.353 165.115 184.116 165.133 183.89 165.197C183.664 165.261 183.453 165.37 183.27 165.518C183.087 165.665 182.936 165.848 182.826 166.056C182.716 166.264 182.649 166.492 182.629 166.726C182.609 166.96 182.637 167.196 182.711 167.419C182.674 167.445 182.64 167.476 182.604 167.503C182.514 167.495 182.425 167.479 182.332 167.479C182.015 167.48 181.701 167.534 181.401 167.638C181.39 167.594 181.372 167.553 181.358 167.51C181.414 167.251 181.41 166.983 181.345 166.726C181.28 166.468 181.156 166.23 180.983 166.029C180.811 165.828 180.594 165.669 180.349 165.566C180.105 165.463 179.84 165.418 179.576 165.434C179.424 165.012 179.177 164.631 178.854 164.32C178.53 164.009 178.139 163.778 177.712 163.643C177.284 163.509 176.831 163.475 176.388 163.545C175.945 163.614 175.524 163.785 175.158 164.045C174.792 164.304 174.491 164.645 174.279 165.039C174.066 165.434 173.948 165.873 173.934 166.321C173.919 166.77 174.008 167.215 174.194 167.623C174.38 168.031 174.658 168.391 175.006 168.673C174.806 168.696 174.609 168.739 174.417 168.802C174.348 168.518 174.209 168.256 174.011 168.041C173.814 167.825 173.566 167.664 173.289 167.57C173.012 167.477 172.717 167.455 172.429 167.506C172.142 167.558 171.872 167.682 171.645 167.865C171.386 167.557 171.061 167.311 170.695 167.143C170.329 166.976 169.93 166.892 169.527 166.897C169.211 166.898 168.896 166.952 168.597 167.056C168.543 166.827 168.443 166.611 168.304 166.422C168.164 166.232 167.988 166.073 167.786 165.954C167.583 165.835 167.358 165.758 167.125 165.727C166.892 165.697 166.655 165.715 166.429 165.779C166.203 165.843 165.992 165.952 165.809 166.1C165.626 166.247 165.475 166.431 165.365 166.638C165.255 166.846 165.188 167.074 165.168 167.308C165.148 167.542 165.177 167.778 165.251 168.001C164.864 168.268 164.548 168.625 164.33 169.041C164.112 169.457 163.998 169.92 163.998 170.389C163.998 170.398 164.001 170.407 164.001 170.416C163.588 170.353 163.166 170.399 162.776 170.548C162.723 170.319 162.623 170.103 162.484 169.914C162.344 169.725 162.168 169.565 161.965 169.446C161.763 169.327 161.538 169.25 161.305 169.22C161.072 169.19 160.835 169.207 160.609 169.271C160.382 169.335 160.171 169.444 159.989 169.592C159.806 169.739 159.655 169.923 159.544 170.13C159.434 170.338 159.367 170.566 159.348 170.8C159.328 171.035 159.356 171.27 159.43 171.494C158.869 171.874 158.459 172.438 158.27 173.09C158.082 173.741 158.129 174.437 158.401 175.058C158.673 175.679 159.155 176.184 159.761 176.487C160.368 176.79 161.061 176.87 161.721 176.714C161.826 177.321 162.122 177.879 162.565 178.307C163.009 178.735 163.577 179.01 164.188 179.093C164.798 179.176 165.42 179.063 165.961 178.769C166.503 178.475 166.937 178.016 167.2 177.459C169.296 177.731 171.424 177.635 173.487 177.175C173.68 177.727 174.034 178.207 174.504 178.554C174.974 178.9 175.538 179.097 176.121 179.118C176.705 179.139 177.281 178.983 177.775 178.671C178.268 178.359 178.656 177.905 178.887 177.369C179.312 177.361 179.729 177.258 180.108 177.067C180.374 177.537 180.765 177.923 181.238 178.182C181.711 178.441 182.247 178.563 182.786 178.533C183.324 178.504 183.844 178.325 184.286 178.017C184.729 177.708 185.076 177.283 185.29 176.787C185.937 176.665 186.607 176.772 187.183 177.092C187.759 177.412 188.205 177.923 188.443 178.538C188.833 178.005 189.333 177.563 189.911 177.244C190.488 176.924 191.128 176.734 191.786 176.688C192.371 176.851 192.993 176.822 193.56 176.605C194.128 176.388 194.61 175.995 194.938 175.484C194.755 176.193 194.846 176.944 195.193 177.589C195.54 178.234 196.117 178.724 196.809 178.962C197.501 179.2 198.258 179.168 198.927 178.873C199.597 178.578 200.131 178.041 200.423 177.369C200.847 177.361 201.264 177.258 201.643 177.067C201.909 177.537 202.3 177.923 202.773 178.182C203.246 178.441 203.782 178.563 204.321 178.533C204.859 178.504 205.379 178.325 205.822 178.017C206.264 177.708 206.611 177.283 206.825 176.787C207.249 176.779 207.666 176.676 208.046 176.485C208.25 176.85 208.532 177.166 208.871 177.411C209.21 177.655 209.598 177.823 210.009 177.903C210.42 177.983 210.843 177.972 211.249 177.871C211.655 177.771 212.034 177.583 212.36 177.321C212.461 177.878 212.723 178.393 213.113 178.803C213.504 179.213 214.005 179.499 214.557 179.627C215.108 179.755 215.684 179.718 216.215 179.522C216.746 179.326 217.208 178.979 217.544 178.523C217.893 178.791 218.299 178.976 218.73 179.063C219.161 179.15 219.607 179.137 220.033 179.026C220.459 178.914 220.853 178.707 221.187 178.42C221.521 178.133 221.784 177.774 221.958 177.369C222.285 177.402 222.615 177.365 222.927 177.261C223.239 177.158 223.526 176.989 223.769 176.767C224.011 176.545 224.204 176.275 224.335 175.973C224.466 175.671 224.532 175.346 224.529 175.017C224.526 174.688 224.453 174.364 224.316 174.065C224.179 173.766 223.98 173.499 223.733 173.282C223.486 173.065 223.196 172.903 222.882 172.805C222.568 172.708 222.237 172.678 221.91 172.717L221.91 172.717ZM169.889 171.516C169.886 171.53 169.884 171.545 169.881 171.559C169.86 171.558 169.84 171.553 169.818 171.553C169.731 171.555 169.645 171.564 169.559 171.579C169.564 171.569 169.57 171.56 169.575 171.549C169.68 171.544 169.785 171.533 169.889 171.516ZM194.206 170.548C194.197 170.514 194.183 170.483 194.173 170.45C194.617 170.141 194.967 169.716 195.184 169.221C195.567 169.219 195.945 169.136 196.294 168.978C196.642 168.82 196.954 168.591 197.208 168.305C197.186 168.416 197.174 168.529 197.174 168.643C197.176 168.821 197.206 168.997 197.262 169.165C196.763 169.514 196.384 170.01 196.18 170.584C195.547 170.337 194.847 170.325 194.206 170.548V170.548ZM211.638 170.765C211.637 170.729 211.641 170.692 211.639 170.657C211.713 170.657 211.787 170.652 211.861 170.642C211.974 171.018 212.162 171.368 212.415 171.669C212.36 171.684 212.302 171.694 212.249 171.712C212.155 171.338 211.94 171.005 211.638 170.765Z" fill="#F9A825"/>
<path d="M161.713 176.21C160.887 176.209 160.07 176.378 159.312 176.704C158.553 177.03 157.869 177.507 157.301 178.106C156.733 178.706 156.294 179.414 156.009 180.189C155.724 180.964 155.6 181.789 155.644 182.613L159.585 236.809C159.668 238.362 160.344 239.825 161.473 240.895C162.602 241.965 164.098 242.561 165.654 242.561H216.471C218.027 242.561 219.523 241.965 220.652 240.895C221.781 239.825 222.457 238.362 222.54 236.809L226.481 182.613C226.525 181.789 226.401 180.964 226.116 180.189C225.832 179.414 225.392 178.706 224.824 178.106C224.256 177.507 223.572 177.03 222.813 176.704C222.055 176.378 221.238 176.209 220.412 176.21H161.713Z" fill="#EDEDED"/>
<path d="M168.072 176.21H164.58V242.561H168.072V176.21Z" fill="#E73D3D"/>
<path d="M177.967 176.21H174.475V242.561H177.967V176.21Z" fill="#E73D3D"/>
<path d="M187.861 176.21H184.369V242.561H187.861V176.21Z" fill="#E73D3D"/>
<path d="M197.756 176.21H194.264V242.561H197.756V176.21Z" fill="#E73D3D"/>
<path d="M207.65 176.21H204.158V242.561H207.65V176.21Z" fill="#E73D3D"/>
<path d="M217.545 176.21H214.053V242.561H217.545V176.21Z" fill="#E73D3D"/>
<path d="M214.044 209.098L202.732 215.697C202.732 215.697 175.393 238.323 194.247 242.094C213.102 245.865 217.815 226.067 217.815 226.067L224.414 218.526L214.044 209.098Z" fill="#FFB8B8"/>
<path d="M160.309 204.385L171.622 210.984C171.622 210.984 198.961 233.609 180.107 237.38C161.252 241.151 156.539 221.354 156.539 221.354L149.939 213.812L160.309 204.385Z" fill="#FFB8B8"/>
<path d="M229.128 114.826L241.384 115.769C241.384 115.769 250.811 124.253 249.868 135.566C249.868 135.566 258.353 160.077 256.467 170.447C256.467 170.447 258.353 187.416 255.524 194.015C252.696 200.614 229.128 226.067 229.128 226.067C229.128 226.067 207.446 209.098 208.388 208.156L236.67 179.874L222.529 161.019L229.128 114.826Z" fill="#ECC2AB"/>
<path d="M148.997 108.227L148.525 108.698C148.525 108.698 127.314 117.654 128.257 128.967C128.257 128.967 119.772 153.478 121.658 163.848C121.658 163.848 119.772 180.817 122.6 187.416C125.429 194.015 148.997 219.468 148.997 219.468C148.997 219.468 170.679 202.499 169.737 201.557L141.455 173.275L155.596 154.42L148.997 108.227Z" fill="#ECC2AB"/>
</g>
<defs>
<clipPath id="clip0">
<rect width="418.927" height="400" fill="white"/>
</clipPath>
</defs>
</svg>
