<svg width="490" height="490" viewBox="0 0 490 490" fill="none" xmlns="http://www.w3.org/2000/svg">
<g clip-path="url(#clip0)">
<path d="M442.244 142.271V119.812H438.751V142.271C437.75 142.676 436.92 143.417 436.405 144.367C435.89 145.317 435.721 146.416 435.927 147.477C436.133 148.538 436.702 149.493 437.536 150.181C438.37 150.868 439.417 151.244 440.498 151.244C441.578 151.244 442.625 150.868 443.459 150.181C444.293 149.493 444.862 148.538 445.068 147.477C445.274 146.416 445.106 145.317 444.59 144.367C444.075 143.417 443.245 142.676 442.244 142.271Z" fill="#E6E6E6"/>
<path d="M450.392 368.921H426.529V79.0702H417.217V368.921H393.353C390.525 368.921 387.725 369.478 385.112 370.56C382.5 371.643 380.126 373.229 378.126 375.229C376.126 377.228 374.54 379.602 373.458 382.215C372.375 384.828 371.818 387.628 371.818 390.456V390.456H471.928V390.456C471.928 387.628 471.371 384.828 470.288 382.215C469.206 379.602 467.62 377.228 465.62 375.229C463.62 373.229 461.246 371.643 458.634 370.56C456.021 369.478 453.22 368.921 450.392 368.921Z" fill="#E6E6E6"/>
<path d="M371.866 122.14H471.879L465.763 45.6964C465.539 43.0605 464.337 40.6036 462.394 38.8092C460.45 37.0147 457.905 36.0126 455.26 36H388.485C385.84 36.0126 383.295 37.0147 381.351 38.8092C379.408 40.6036 378.206 43.0605 377.982 45.6964L371.866 122.14Z" fill="#E76D53"/>
<path d="M88.5605 302.299H393.823V271.134C393.823 186.973 325.353 118.503 241.192 118.503C157.031 118.503 88.5605 186.973 88.5605 271.134V302.299Z" fill="#885C34"/>
<path opacity="0.2" d="M88.5605 302.299H393.823V271.134C393.823 186.973 325.353 118.503 241.192 118.503C157.031 118.503 88.5605 186.973 88.5605 271.134V302.299Z" fill="black"/>
<path d="M128.124 313.087H363.05C362.827 300.728 357.764 288.949 348.949 280.282C340.134 271.615 328.271 266.753 315.909 266.739H175.265C162.903 266.753 151.04 271.615 142.225 280.282C133.41 288.949 128.347 300.728 128.124 313.087Z" fill="#593C22"/>
<path d="M100.148 308.293C126.187 308.293 147.296 287.184 147.296 261.145C147.296 235.106 126.187 213.997 100.148 213.997C74.1088 213.997 53 235.106 53 261.145C53 287.184 74.1088 308.293 100.148 308.293Z" fill="#885C34"/>
<path d="M386.231 308.293C412.27 308.293 433.379 287.184 433.379 261.145C433.379 235.106 412.27 213.997 386.231 213.997C360.192 213.997 339.083 235.106 339.083 261.145C339.083 287.184 360.192 308.293 386.231 308.293Z" fill="#885C34"/>
<path d="M350.671 285.118V302.699H132.912V285.118H84.1655V370.806C84.1655 376.056 86.2511 381.091 89.9635 384.804C93.6758 388.516 98.7109 390.602 103.961 390.602H379.621C382.221 390.602 384.795 390.09 387.197 389.095C389.598 388.1 391.781 386.642 393.619 384.804C395.457 382.966 396.915 380.783 397.91 378.382C398.905 375.98 399.417 373.406 399.417 370.806V285.118H350.671Z" fill="#885C34"/>
<path opacity="0.2" d="M100.148 270.734C105.444 270.734 109.737 266.441 109.737 261.145C109.737 255.849 105.444 251.555 100.148 251.555C94.8519 251.555 90.5586 255.849 90.5586 261.145C90.5586 266.441 94.8519 270.734 100.148 270.734Z" fill="black"/>
<path opacity="0.2" d="M386.231 270.734C391.528 270.734 395.821 266.441 395.821 261.145C395.821 255.849 391.528 251.555 386.231 251.555C380.935 251.555 376.642 255.849 376.642 261.145C376.642 266.441 380.935 270.734 386.231 270.734Z" fill="black"/>
<path d="M258.56 113.117C258.56 113.117 259.503 131.029 266.102 134.8C272.701 138.57 266.102 164.024 266.102 164.024L234.992 164.967L233.106 134.8C233.106 134.8 236.877 122.544 234.992 116.888C233.106 111.231 258.56 113.117 258.56 113.117Z" fill="#FFB8B8"/>
<path d="M293.441 361.996L282.128 375.194L300.04 392.163L309.467 373.309L293.441 361.996Z" fill="#FFB8B8"/>
<path d="M213.309 361.996L224.622 375.194L206.71 392.163L197.283 373.309L213.309 361.996Z" fill="#FFB8B8"/>
<path d="M287.313 237.085C287.313 237.085 355.189 259.711 351.418 281.393C347.647 303.076 318.423 379.437 318.423 379.437C318.423 379.437 302.397 379.437 290.141 362.467L298.626 343.613C298.626 343.613 294.855 333.243 301.454 331.358C308.053 329.472 311.824 296.477 311.824 296.477C311.824 296.477 263.745 292.706 253.375 274.794L234.521 229.543L287.313 237.085Z" fill="#2F2E41"/>
<path d="M219.437 237.085C219.437 237.085 151.561 259.711 155.332 281.393C159.103 303.076 188.327 379.437 188.327 379.437C188.327 379.437 204.353 379.437 216.609 362.467L208.124 343.613C208.124 343.613 211.895 333.243 205.296 331.358C198.697 329.472 194.926 296.477 194.926 296.477C194.926 296.477 243.005 292.706 253.375 274.794L272.229 229.543L219.437 237.085Z" fill="#2F2E41"/>
<path d="M296.74 385.093C296.74 385.093 306.168 376.608 307.11 383.207C308.053 389.806 306.168 416.203 306.168 416.203C306.168 416.203 315.595 436 301.454 436C287.313 436 280.714 420.916 282.6 405.833C284.485 390.749 276 385.093 276 385.093C276 385.093 265.631 364.353 276 362.468C286.37 360.582 290.141 365.296 290.141 365.296C290.141 365.296 286.37 382.265 296.74 385.093Z" fill="#2F2E41"/>
<path d="M210.01 385.093C210.01 385.093 200.583 376.608 199.64 383.207C198.697 389.806 200.583 416.203 200.583 416.203C200.583 416.203 191.155 436 205.296 436C219.437 436 226.036 420.916 224.151 405.833C222.265 390.749 230.75 385.093 230.75 385.093C230.75 385.093 241.12 364.353 230.75 362.468C220.38 360.582 216.609 365.296 216.609 365.296C216.609 365.296 220.38 382.265 210.01 385.093Z" fill="#2F2E41"/>
<path d="M243.948 123.958C255.923 123.958 265.63 114.251 265.63 102.276C265.63 90.3006 255.923 80.5929 243.948 80.5929C231.973 80.5929 222.265 90.3006 222.265 102.276C222.265 114.251 231.973 123.958 243.948 123.958Z" fill="#FBBEBE"/>
<path d="M247.247 139.513L234.049 129.143L201.996 144.227L201.054 230.015C201.054 230.015 181.257 239.442 186.913 251.697C186.913 251.697 203.882 255.468 211.424 263.01C218.965 270.552 261.388 260.182 279.3 254.526C297.212 248.869 301.925 242.27 301.925 242.27L284.014 216.817L294.383 151.769L262.334 130.221L247.247 139.513Z" fill="#ECC2AB"/>
<path d="M270.308 87.5179C269.836 86.8768 269.404 86.2068 269.016 85.5117C268.343 83.8742 269.405 81.9446 268.413 80.4156C267.4 78.8547 264.828 78.5255 263.079 77.4652C260.383 75.8317 259.894 72.6263 257.368 70.8262C255.549 69.5292 252.954 69.1796 250.523 69.2536C248.091 69.3276 245.692 69.7672 243.26 69.8154C239.976 69.8887 236.719 69.2225 233.728 67.8661L235.522 71.3763C233.528 70.9416 231.623 70.1695 229.889 69.0931C229.096 70.0775 230.548 71.5717 229.647 72.4951C229.278 72.7929 228.842 72.9954 228.376 73.0845C224.915 74.0681 221.656 75.658 218.751 77.7805C218.078 78.2083 217.522 78.7957 217.131 79.4905C216.663 80.527 217.078 81.6718 217.042 82.7739C216.978 84.7765 215.449 86.5228 214.364 88.3268C213.279 90.1308 212.694 92.4697 214.303 94.0008C214.694 94.3118 215.069 94.6427 215.427 94.9922C217.039 96.8938 214.185 99.6787 215.561 101.697C216.158 102.573 217.382 103.016 218.446 103.534C220.484 104.487 222.198 106.015 223.378 107.93L222.551 101.86C222.508 101.71 222.5 101.552 222.529 101.399C222.557 101.245 222.622 101.1 222.716 100.976C223.117 100.568 223.955 100.731 224.508 100.46C225.116 100.163 225.162 99.4805 225.138 98.909L224.952 94.5023C224.868 92.5208 224.845 92.2576 226.305 90.6581C227.324 89.5407 228.928 88.8665 230.539 88.3706C234.221 87.2375 238.18 86.8456 242.094 86.4626C246.639 86.0178 251.757 83.8125 255.287 86.154C258.176 88.0707 259.137 91.2213 260.529 94.0154C261.78 96.5269 264.992 103.922 267.665 99.9188C269.345 97.405 271.913 90.3168 270.308 87.5179Z" fill="#2F2E41"/>
<path d="M247.67 95.9857C247.581 95.9858 247.495 96.0213 247.432 96.0844C247.369 96.1476 247.333 96.2332 247.333 96.3225V105.401C247.333 105.49 247.369 105.575 247.432 105.639C247.495 105.702 247.581 105.737 247.67 105.737H263.297C263.387 105.737 263.472 105.702 263.535 105.639C263.599 105.575 263.634 105.49 263.634 105.401V96.3225C263.634 96.2332 263.599 96.1476 263.535 96.0844C263.472 96.0213 263.387 95.9858 263.297 95.9857L247.67 95.9857Z" fill="#3F3D56"/>
<path d="M249.416 96.7863C249.25 96.7865 249.09 96.8527 248.973 96.9704C248.855 97.0881 248.789 97.2477 248.789 97.4141V104.309C248.789 104.475 248.855 104.635 248.973 104.753C249.09 104.87 249.25 104.937 249.416 104.937H261.551C261.717 104.937 261.877 104.87 261.995 104.753C262.112 104.635 262.179 104.475 262.179 104.309V97.4141C262.179 97.2477 262.112 97.0881 261.995 96.9704C261.877 96.8527 261.717 96.7865 261.551 96.7863H249.416Z" fill="#FF6584"/>
<path d="M247.846 98.9761H239.706V100.862H247.846V98.9761Z" fill="#3F3D56"/>
<path d="M225.541 95.9857C225.452 95.9859 225.366 96.0214 225.303 96.0845C225.24 96.1476 225.204 96.2332 225.204 96.3225V105.401C225.204 105.49 225.24 105.575 225.303 105.638C225.366 105.702 225.452 105.737 225.541 105.737H241.168C241.258 105.737 241.343 105.702 241.406 105.638C241.47 105.575 241.505 105.49 241.505 105.401V96.3225C241.505 96.2332 241.47 96.1476 241.406 96.0845C241.343 96.0214 241.258 95.9859 241.168 95.9857L225.541 95.9857Z" fill="#3F3D56"/>
<path d="M227.287 96.7863C227.121 96.7865 226.961 96.8526 226.843 96.9703C226.726 97.088 226.659 97.2476 226.659 97.4141V104.309C226.659 104.475 226.726 104.635 226.843 104.753C226.961 104.87 227.121 104.937 227.287 104.937H239.421C239.588 104.937 239.748 104.87 239.865 104.753C239.983 104.635 240.049 104.475 240.05 104.309V97.4141C240.049 97.2476 239.983 97.088 239.865 96.9703C239.748 96.8526 239.588 96.7865 239.421 96.7863H227.287Z" fill="#6C63FF"/>
<path d="M216.998 209.299H271.127C273.288 209.299 275.361 210.158 276.889 211.686C278.417 213.214 279.275 215.287 279.275 217.448H208.85C208.85 215.287 209.708 213.214 211.236 211.686C212.764 210.158 214.837 209.299 216.998 209.299Z" fill="#9A99A2"/>
<path d="M274.91 208.717C274.593 208.719 274.279 208.772 273.979 208.876C273.877 208.463 273.626 208.101 273.275 207.86C272.924 207.619 272.497 207.514 272.075 207.566C271.652 207.619 271.263 207.824 270.981 208.143C270.699 208.462 270.544 208.874 270.545 209.299C270.545 209.308 270.547 209.316 270.547 209.325C270.329 209.346 270.114 209.39 269.905 209.458C269.846 209.223 269.739 209.003 269.59 208.811C269.442 208.62 269.255 208.461 269.042 208.346C269.601 208.036 270.044 207.552 270.302 206.967C270.629 207 270.959 206.963 271.271 206.859C271.583 206.755 271.87 206.587 272.113 206.365C272.355 206.143 272.548 205.872 272.679 205.571C272.81 205.269 272.876 204.943 272.873 204.614C272.87 204.286 272.797 203.961 272.66 203.662C272.523 203.363 272.324 203.097 272.077 202.88C271.83 202.663 271.54 202.501 271.226 202.403C270.911 202.306 270.58 202.276 270.254 202.315C269.937 202.316 269.623 202.37 269.323 202.474C269.269 202.245 269.17 202.029 269.03 201.84C268.891 201.65 268.715 201.491 268.512 201.372C268.31 201.253 268.085 201.176 267.852 201.145C267.619 201.115 267.382 201.133 267.155 201.197C266.929 201.261 266.718 201.37 266.535 201.518C266.353 201.665 266.201 201.848 266.091 202.056C265.981 202.264 265.914 202.492 265.895 202.726C265.875 202.96 265.903 203.196 265.977 203.419C265.907 203.468 265.843 203.522 265.778 203.576C265.448 203.293 265.021 203.151 264.587 203.18C264.363 202.537 263.921 201.994 263.336 201.645C262.752 201.296 262.063 201.163 261.391 201.271C260.719 201.379 260.107 201.719 259.66 202.233C259.214 202.747 258.963 203.402 258.951 204.083C258.718 204.101 258.487 204.147 258.265 204.22C258.24 204.121 258.206 204.025 258.164 203.932C258.394 203.73 258.579 203.481 258.706 203.202C258.834 202.924 258.901 202.621 258.904 202.315C258.863 201.66 258.565 201.047 258.075 200.611C257.584 200.175 256.941 199.951 256.285 199.987C255.968 199.988 255.654 200.042 255.354 200.145C255.301 199.917 255.201 199.701 255.062 199.512C254.922 199.322 254.746 199.163 254.543 199.044C254.341 198.924 254.116 198.847 253.883 198.817C253.65 198.787 253.413 198.805 253.187 198.869C252.961 198.933 252.75 199.042 252.567 199.189C252.384 199.337 252.233 199.52 252.123 199.728C252.012 199.936 251.946 200.164 251.926 200.398C251.906 200.632 251.934 200.868 252.008 201.091C251.642 201.346 251.339 201.681 251.123 202.072C250.907 202.462 250.785 202.897 250.764 203.343C250.74 203.365 250.712 203.383 250.688 203.406C250.732 203.24 250.754 203.069 250.756 202.897C250.715 202.242 250.417 201.629 249.926 201.193C249.435 200.757 248.792 200.533 248.137 200.569C247.82 200.57 247.505 200.624 247.206 200.727C247.152 200.499 247.053 200.283 246.913 200.094C246.774 199.904 246.598 199.745 246.395 199.626C246.192 199.506 245.968 199.429 245.735 199.399C245.501 199.369 245.265 199.387 245.038 199.451C244.812 199.515 244.601 199.624 244.418 199.771C244.235 199.919 244.084 200.102 243.974 200.31C243.864 200.518 243.797 200.746 243.777 200.98C243.758 201.214 243.786 201.45 243.86 201.673C243.474 201.94 243.158 202.297 242.94 202.713C242.721 203.129 242.607 203.591 242.607 204.061C242.607 204.531 242.721 204.993 242.94 205.409C243.158 205.825 243.474 206.182 243.86 206.449C243.742 206.787 243.742 207.155 243.86 207.494C243.568 207.697 243.316 207.952 243.115 208.245C243.008 207.854 242.766 207.514 242.433 207.282C242.1 207.05 241.697 206.943 241.293 206.978C240.889 207.013 240.51 207.188 240.222 207.473C239.934 207.758 239.754 208.136 239.715 208.539C239.482 208.403 239.23 208.301 238.967 208.237C239.438 207.926 239.81 207.485 240.036 206.967C240.363 207 240.694 206.963 241.006 206.859C241.318 206.755 241.604 206.587 241.847 206.365C242.09 206.143 242.283 205.872 242.414 205.571C242.545 205.269 242.611 204.943 242.607 204.614C242.604 204.286 242.531 203.961 242.394 203.662C242.257 203.363 242.058 203.097 241.811 202.88C241.564 202.663 241.274 202.501 240.96 202.403C240.646 202.306 240.315 202.276 239.988 202.315C239.671 202.316 239.357 202.37 239.058 202.474C239.004 202.245 238.904 202.029 238.765 201.84C238.625 201.65 238.449 201.491 238.247 201.372C238.044 201.253 237.819 201.176 237.586 201.145C237.353 201.115 237.116 201.133 236.89 201.197C236.664 201.261 236.453 201.37 236.27 201.518C236.087 201.665 235.936 201.848 235.826 202.056C235.716 202.264 235.649 202.492 235.629 202.726C235.609 202.96 235.637 203.196 235.711 203.419C235.674 203.445 235.64 203.476 235.604 203.503C235.514 203.495 235.425 203.479 235.332 203.479C235.015 203.48 234.701 203.534 234.401 203.638C234.39 203.594 234.372 203.553 234.358 203.51C234.414 203.251 234.41 202.983 234.345 202.726C234.28 202.468 234.156 202.23 233.983 202.029C233.811 201.828 233.594 201.669 233.349 201.566C233.105 201.463 232.84 201.418 232.576 201.434C232.424 201.012 232.177 200.631 231.854 200.32C231.53 200.009 231.139 199.778 230.712 199.643C230.284 199.509 229.831 199.475 229.388 199.545C228.945 199.614 228.524 199.785 228.158 200.045C227.792 200.304 227.491 200.645 227.279 201.039C227.066 201.434 226.948 201.873 226.934 202.321C226.919 202.77 227.008 203.215 227.194 203.623C227.38 204.031 227.658 204.391 228.006 204.673C227.806 204.696 227.609 204.739 227.417 204.802C227.348 204.518 227.209 204.256 227.011 204.041C226.814 203.825 226.566 203.664 226.289 203.57C226.012 203.477 225.717 203.455 225.429 203.506C225.142 203.558 224.872 203.682 224.645 203.865C224.386 203.557 224.061 203.311 223.695 203.143C223.329 202.976 222.93 202.892 222.527 202.897C222.211 202.898 221.896 202.952 221.597 203.056C221.543 202.827 221.443 202.611 221.304 202.422C221.164 202.232 220.988 202.073 220.786 201.954C220.583 201.835 220.358 201.758 220.125 201.727C219.892 201.697 219.655 201.715 219.429 201.779C219.203 201.843 218.992 201.952 218.809 202.1C218.626 202.247 218.475 202.431 218.365 202.638C218.255 202.846 218.188 203.074 218.168 203.308C218.148 203.542 218.177 203.778 218.251 204.001C217.864 204.268 217.548 204.625 217.33 205.041C217.112 205.457 216.998 205.92 216.998 206.389C216.998 206.398 217.001 206.407 217.001 206.416C216.588 206.353 216.166 206.399 215.776 206.548C215.723 206.319 215.623 206.103 215.484 205.914C215.344 205.725 215.168 205.565 214.965 205.446C214.763 205.327 214.538 205.25 214.305 205.22C214.072 205.19 213.835 205.207 213.609 205.271C213.382 205.335 213.171 205.444 212.989 205.592C212.806 205.739 212.655 205.923 212.544 206.13C212.434 206.338 212.367 206.566 212.348 206.8C212.328 207.035 212.356 207.27 212.43 207.494C211.869 207.874 211.459 208.438 211.27 209.09C211.082 209.741 211.129 210.437 211.401 211.058C211.673 211.679 212.155 212.184 212.761 212.487C213.368 212.79 214.061 212.87 214.721 212.714C214.826 213.321 215.122 213.879 215.565 214.307C216.009 214.735 216.577 215.01 217.188 215.093C217.798 215.176 218.42 215.063 218.961 214.769C219.503 214.475 219.937 214.016 220.2 213.459C222.296 213.731 224.424 213.635 226.487 213.175C226.68 213.727 227.034 214.207 227.504 214.554C227.974 214.9 228.538 215.097 229.121 215.118C229.705 215.139 230.281 214.983 230.775 214.671C231.268 214.359 231.656 213.905 231.887 213.369C232.312 213.361 232.729 213.258 233.108 213.067C233.374 213.537 233.765 213.923 234.238 214.182C234.711 214.441 235.247 214.563 235.786 214.533C236.324 214.504 236.844 214.325 237.286 214.017C237.729 213.708 238.076 213.283 238.29 212.787C238.937 212.665 239.607 212.772 240.183 213.092C240.759 213.412 241.205 213.923 241.443 214.538C241.833 214.005 242.333 213.563 242.911 213.244C243.488 212.924 244.128 212.734 244.786 212.688C245.371 212.851 245.993 212.822 246.56 212.605C247.128 212.388 247.61 211.995 247.938 211.484C247.755 212.193 247.846 212.944 248.193 213.589C248.54 214.234 249.117 214.724 249.809 214.962C250.501 215.2 251.258 215.168 251.927 214.873C252.597 214.578 253.131 214.041 253.423 213.369C253.847 213.361 254.264 213.258 254.643 213.067C254.909 213.537 255.3 213.923 255.773 214.182C256.246 214.441 256.782 214.563 257.321 214.533C257.859 214.504 258.379 214.325 258.822 214.017C259.264 213.708 259.611 213.283 259.825 212.787C260.249 212.779 260.666 212.676 261.046 212.485C261.25 212.85 261.532 213.166 261.871 213.411C262.21 213.655 262.598 213.823 263.009 213.903C263.42 213.983 263.843 213.972 264.249 213.871C264.655 213.771 265.034 213.583 265.36 213.321C265.461 213.878 265.723 214.393 266.113 214.803C266.504 215.213 267.005 215.499 267.557 215.627C268.108 215.755 268.684 215.718 269.215 215.522C269.746 215.326 270.208 214.979 270.544 214.523C270.893 214.791 271.299 214.976 271.73 215.063C272.161 215.15 272.607 215.137 273.033 215.026C273.459 214.914 273.853 214.707 274.187 214.42C274.521 214.133 274.784 213.774 274.958 213.369C275.285 213.402 275.615 213.365 275.927 213.261C276.239 213.158 276.526 212.989 276.769 212.767C277.011 212.545 277.204 212.275 277.335 211.973C277.466 211.671 277.532 211.346 277.529 211.017C277.526 210.688 277.453 210.364 277.316 210.065C277.179 209.766 276.98 209.499 276.733 209.282C276.486 209.065 276.196 208.903 275.882 208.805C275.568 208.708 275.237 208.678 274.91 208.717L274.91 208.717ZM222.889 207.516C222.886 207.53 222.884 207.545 222.881 207.559C222.86 207.558 222.84 207.553 222.818 207.553C222.731 207.555 222.645 207.564 222.559 207.579C222.564 207.569 222.57 207.56 222.575 207.549C222.68 207.544 222.785 207.533 222.889 207.516ZM247.206 206.548C247.197 206.514 247.183 206.483 247.173 206.45C247.617 206.141 247.967 205.716 248.184 205.221C248.567 205.219 248.945 205.136 249.294 204.978C249.642 204.82 249.954 204.591 250.208 204.305C250.186 204.416 250.174 204.529 250.174 204.643C250.176 204.821 250.206 204.997 250.262 205.165C249.763 205.514 249.384 206.01 249.18 206.584C248.547 206.337 247.847 206.325 247.206 206.548V206.548ZM264.638 206.765C264.637 206.729 264.641 206.692 264.639 206.657C264.713 206.657 264.787 206.652 264.861 206.642C264.974 207.018 265.162 207.368 265.415 207.669C265.36 207.684 265.302 207.694 265.249 207.712C265.155 207.338 264.94 207.005 264.638 206.765Z" fill="#F9A825"/>
<path d="M214.713 212.21C213.887 212.209 213.07 212.378 212.312 212.704C211.553 213.03 210.869 213.507 210.301 214.106C209.733 214.706 209.294 215.414 209.009 216.189C208.724 216.964 208.6 217.789 208.644 218.613L212.585 272.809C212.668 274.362 213.344 275.825 214.473 276.895C215.602 277.965 217.098 278.561 218.654 278.561H269.471C271.027 278.561 272.523 277.965 273.652 276.895C274.781 275.825 275.457 274.362 275.54 272.809L279.481 218.613C279.525 217.789 279.401 216.964 279.116 216.189C278.832 215.414 278.392 214.706 277.824 214.106C277.256 213.507 276.572 213.03 275.813 212.704C275.055 212.378 274.238 212.209 273.412 212.21H214.713Z" fill="#EDEDED"/>
<path d="M221.072 212.21H217.58V278.561H221.072V212.21Z" fill="#E73D3D"/>
<path d="M230.967 212.21H227.475V278.561H230.967V212.21Z" fill="#E73D3D"/>
<path d="M240.861 212.21H237.369V278.561H240.861V212.21Z" fill="#E73D3D"/>
<path d="M250.756 212.21H247.264V278.561H250.756V212.21Z" fill="#E73D3D"/>
<path d="M260.65 212.21H257.158V278.561H260.65V212.21Z" fill="#E73D3D"/>
<path d="M270.545 212.21H267.053V278.561H270.545V212.21Z" fill="#E73D3D"/>
<path d="M267.044 245.098L255.732 251.697C255.732 251.697 228.393 274.323 247.247 278.094C266.102 281.865 270.815 262.067 270.815 262.067L277.414 254.526L267.044 245.098Z" fill="#FFB8B8"/>
<path d="M213.309 240.385L224.622 246.984C224.622 246.984 251.961 269.609 233.107 273.38C214.252 277.151 209.539 257.354 209.539 257.354L202.939 249.812L213.309 240.385Z" fill="#FFB8B8"/>
<path d="M282.128 150.826L294.384 151.769C294.384 151.769 303.811 160.253 302.868 171.566C302.868 171.566 311.353 196.077 309.467 206.447C309.467 206.447 311.353 223.416 308.524 230.015C305.696 236.614 282.128 262.067 282.128 262.067C282.128 262.067 260.446 245.098 261.388 244.156L289.67 215.874L275.529 197.019L282.128 150.826Z" fill="#ECC2AB"/>
<path d="M201.997 144.227L201.525 144.698C201.525 144.698 180.314 153.654 181.257 164.967C181.257 164.967 172.772 189.478 174.658 199.848C174.658 199.848 172.772 216.817 175.6 223.416C178.429 230.015 201.997 255.468 201.997 255.468C201.997 255.468 223.679 238.499 222.737 237.557L194.455 209.275L208.596 190.42L201.997 144.227Z" fill="#ECC2AB"/>
</g>
<circle opacity="0.3" cx="245" cy="245" r="245" fill="black"/>
<circle opacity="0.3" cx="244" cy="245" r="240" fill="black"/>
<defs>
<clipPath id="clip0">
<rect x="53" y="36" width="418.927" height="400" fill="white"/>
</clipPath>
</defs>
</svg>
