<svg width="656" height="500" viewBox="0 0 656 500" fill="none" xmlns="http://www.w3.org/2000/svg">
<path opacity="0.3" d="M649.503 420.166C643.407 446.168 631.428 472.776 609.677 487.603C608.885 488.154 608.068 488.68 607.258 489.194C606.048 489.932 604.839 490.645 603.63 491.316C603.315 491.492 603.025 491.655 602.686 491.818C600.039 493.185 597.304 494.372 594.498 495.374C573.757 502.854 549.943 500.417 528.518 494.019C524.503 492.81 520.524 491.498 516.587 490.077C513.461 488.958 510.359 487.779 507.263 486.569H507.19C506.7 486.382 506.204 486.188 505.721 485.965L504.112 485.36C501.258 484.223 498.41 483.066 495.568 481.889C492.217 480.516 488.873 479.131 485.529 477.765C475.908 473.834 466.239 470.049 456.304 467.007C452.173 465.743 447.995 464.588 443.798 463.584C431.275 460.518 418.527 458.39 405.768 456.4L399.158 455.384C392.446 454.35 385.691 453.322 378.925 452.439C371.886 451.52 364.829 450.758 357.76 450.335C344.456 449.519 331.152 449.869 318.103 452.494C308.185 454.489 298.522 457.767 288.98 461.564C258.285 473.768 228.853 491.244 196.459 488.293C180.313 486.823 165.117 480.268 150.398 473.477C129.275 463.741 108.201 453.183 89.7938 439.22C84.5976 435.303 79.6384 431.08 74.9421 426.576C74.809 426.461 74.682 426.334 74.555 426.213L74.4462 426.104L74.3011 425.965L74.0652 425.735C70.5942 422.349 67.2985 418.799 64.1419 415.123L61.2998 411.736C56.7402 406.173 52.483 400.349 48.4254 394.381L47.1253 392.494L46.3815 391.382C43.8498 387.56 41.3785 383.692 38.9677 379.777C35.2548 373.772 31.6507 367.683 28.0829 361.636C21.9814 351.356 15.7649 340.737 13.6605 328.981C12.4368 321.94 12.5682 314.73 14.0476 307.738C14.5987 305.054 15.2931 302.402 16.1278 299.792C16.2548 299.411 16.3697 299.042 16.5027 298.667C17.9187 294.498 19.5868 290.419 21.4976 286.452C34.638 258.786 37.4425 248.099 51.0983 225.86C72.2632 191.391 70.7514 191.391 85.2645 176.273C99.7776 161.156 118.221 148.457 140.596 145.736C159.889 143.389 141.914 145.56 161.761 143.014C181.964 140.373 162.668 143.014 183.53 140.293C198.346 138.361 224.651 136.665 239.907 135.455C258.514 133.98 302.054 130.618 321.404 130.618C343.174 130.618 356.478 130.618 356.478 130.618C356.478 130.618 350.122 130.872 386.411 130.618C422.7 130.364 394.575 130.618 444.463 130.618C460.186 130.618 484.495 130.546 507.656 137.572C534.565 145.736 527.007 143.014 542.729 149.062C577.736 162.526 587.175 183.53 590.199 187.461C611.666 226.162 668.769 338.04 649.503 420.166Z" fill="#E76D53"/>
<path d="M501.566 444.747L498.887 446.501L503.955 482.905L516.527 490.089L609.683 489.17L607.995 467.733L501.566 444.747Z" fill="#3A3768"/>
<path d="M504.051 485.342C501.197 484.205 498.349 483.048 495.507 481.871V464.268L503.308 467.829V467.95L503.943 482.905L504.051 485.342Z" fill="#3A3768"/>
<path opacity="0.1" d="M504.051 485.342C501.197 484.205 498.349 483.048 495.507 481.871V464.268L503.308 467.829V467.95L503.943 482.905L504.051 485.342Z" fill="black"/>
<path d="M602.625 491.824C599.978 493.191 597.243 494.378 594.438 495.38H594.371V477.747L602.166 481.308V481.435L602.498 489.248L602.625 491.824Z" fill="#3A3768"/>
<path opacity="0.1" d="M602.625 491.824C599.978 493.191 597.243 494.378 594.438 495.38H594.371V477.747L602.166 481.308V481.435L602.498 489.248L602.625 491.824Z" fill="black"/>
<path d="M609.677 473.441V489.164H607.258L516.551 490.046C513.425 488.928 510.322 487.748 507.226 486.539H507.154L505.618 468.15L609.677 473.441Z" fill="#3A3768"/>
<path d="M507.202 486.575H507.129C506.64 486.388 506.144 486.194 505.66 485.971L503.949 482.905L496.305 469.136L495.507 467.696L493.215 463.578L498.881 446.531L505.424 467.654L505.593 468.192L506.017 473.03L507.202 486.575Z" fill="#3A3768"/>
<path d="M495.507 435.61H578.504L612.894 470.46L505.599 468.168L495.507 435.61Z" fill="#3A3768"/>
<path d="M612.894 470.46V475.503L506.017 472.981L505.6 468.168L612.894 470.46Z" fill="#3A3768"/>
<path opacity="0.1" d="M612.894 470.46V475.503L506.017 472.981L505.6 468.168L612.894 470.46Z" fill="black"/>
<path d="M537.462 403.252C537.462 403.252 519.81 404.171 518.432 403.252C517.053 402.333 488.698 404.395 486.714 404.625C484.731 404.855 464.558 406.016 464.558 406.016L462.949 438.343L534.94 427.108L537.462 403.252Z" fill="#2D427A"/>
<path opacity="0.1" d="M537.462 403.252C537.462 403.252 519.81 404.171 518.432 403.252C517.053 402.333 488.698 404.395 486.714 404.625C484.731 404.855 464.558 406.016 464.558 406.016L462.949 438.343L534.94 427.108L537.462 403.252Z" fill="black"/>
<path d="M373.295 369.878L454.586 388.908L457.876 438.858L362.029 439.232L373.295 369.878Z" fill="#3A3768"/>
<path d="M435.429 282.322L376.881 316.361L391.14 358.848L394.381 413.695L436.675 404.649L457.876 361.164L476.785 334.684L459.4 302.622L435.429 282.322Z" fill="#3A3768"/>
<path d="M59.1588 312.352C64.5407 312.66 80.7168 303.819 80.7168 303.819C80.7168 303.819 65.6716 293.17 60.2896 292.856C57.7335 292.756 55.2404 293.664 53.3461 295.383C51.4518 297.102 50.3076 299.495 50.1595 302.049C50.0113 304.603 50.8711 307.113 52.5539 309.039C54.2368 310.966 56.6083 312.155 59.1588 312.352Z" fill="#6C63FF"/>
<path d="M405.72 430.585V456.382L399.11 455.366C392.398 454.332 385.643 453.304 378.876 452.421L378.109 439.976L378.048 438.857L377.177 424.762L403.065 430.029L403.815 430.18L405.72 430.585Z" fill="#3A3768"/>
<path opacity="0.1" d="M405.72 430.585V456.382L399.11 455.366C392.398 454.332 385.643 453.304 378.876 452.421L378.109 439.976L378.048 438.857L377.177 424.762L403.065 430.029L403.815 430.18L405.72 430.585Z" fill="black"/>
<path d="M373.784 428.16L366.026 438.858L365.203 439.976L363.843 441.857L357.705 450.323C344.401 449.507 331.098 449.857 318.048 452.482C308.131 454.477 298.467 457.755 288.925 461.552C284.958 455.342 278.857 447.777 270.137 441.869C269.187 441.222 268.202 440.599 267.186 439.988C266.539 439.607 265.886 439.232 265.214 438.87C261.089 436.638 256.698 434.935 252.146 433.802L373.784 428.16Z" fill="#3A3768"/>
<path d="M64.1113 415.086L78.9086 394L80.2027 392.186L80.9767 391.079L87.7374 381.44H87.5257C85.1069 381.331 62.8837 380.43 38.9795 379.801C41.3983 383.708 43.8696 387.576 46.3933 391.406L47.1371 392.518L48.3949 394.381C52.4525 400.349 56.7096 406.173 61.2692 411.736L64.1113 415.086Z" fill="#3A3768"/>
<path d="M435.731 282.316L429.182 286.488L414.457 295.88L390.747 310.997L388.993 312.11L389.555 329.604L285.382 334.66H170.516L139.531 326.913L138.884 326.75L138.237 326.587L132.111 325.051L105.177 318.332L14.0352 307.72C14.5863 305.036 15.2807 302.384 16.1154 299.774C16.2424 299.393 16.3572 299.024 16.4903 298.649C17.9063 294.48 19.5744 290.401 21.4852 286.434C69.4933 283.066 124.782 282.449 139.289 282.346L142.917 282.316H435.731Z" fill="#3A3768"/>
<path opacity="0.1" d="M373.79 428.16L252.159 433.784C258.587 435.392 264.679 438.126 270.155 441.857H363.885L373.79 428.16Z" fill="black"/>
<path opacity="0.1" d="M87.7378 381.422L80.9892 391.061L80.2152 392.168L78.9211 393.982H78.1773H76.5264L48.4073 394.32L47.1253 392.494L46.3815 391.382C43.8498 387.56 41.3786 383.692 38.9678 379.777C62.872 380.382 85.1133 381.307 87.514 381.416L87.7378 381.422Z" fill="black"/>
<path d="M403.065 312.158V439.976H245.966L243.717 418.582C243.717 418.582 224.886 417.493 203.201 413.974C201.956 413.762 200.698 413.556 199.428 413.333C194.264 412.438 188.991 411.404 183.82 410.206L182.786 409.964C180.851 409.513 178.938 409.035 177.047 408.531C175.191 408.047 173.365 407.527 171.575 406.995C169.029 406.227 166.568 405.423 164.203 404.576C156.022 401.613 149.086 398.064 144.605 393.819L141.261 393.734L103.883 392.791H103.206H102.994H102.317L80.2029 392.222L78.165 392.174L47.1614 392.549L46.4176 391.436C43.8859 387.614 41.4147 383.746 39.0039 379.832C35.2909 373.827 31.6869 367.737 28.1191 361.69C22.0175 351.41 15.8011 340.791 13.6967 329.036C12.4729 321.995 12.6043 314.784 14.0837 307.792C14.6349 305.108 15.3293 302.456 16.1639 299.846H139.543L140.293 300.07L144.387 301.28L145.034 301.473L145.681 301.667C156.838 304.992 179.793 311.626 185.695 311.626H196.035L249.577 311.759L299.109 311.898C334.98 311.983 370.15 312.08 388.975 312.128L403.065 312.158Z" fill="#3A3768"/>
<path opacity="0.1" d="M403.065 311.04V438.857H245.967L243.717 417.463C243.717 417.463 224.971 416.374 203.334 412.867C202.615 412.74 201.883 412.625 201.151 412.504C195.794 411.591 190.267 410.539 184.885 409.323L184.141 409.154L183.651 409.039L182.339 408.725C180.561 408.314 178.795 407.872 177.054 407.406C175.143 406.907 173.264 406.376 171.418 405.816C168.836 405.048 166.338 404.22 163.943 403.349C155.877 400.404 149.043 396.884 144.593 392.688L143.081 392.645L104.839 391.678H104.174H103.968H103.297L80.9831 391.073L79.1084 391.025H78.1711L46.3996 391.412C43.8678 387.59 41.3966 383.722 38.9858 379.807C35.2729 373.803 31.6688 367.713 28.101 361.666C21.9994 351.386 15.783 340.767 13.6786 329.012C12.4549 321.97 12.5862 314.76 14.0656 307.768C14.6168 305.084 15.3112 302.432 16.1458 299.822C16.2728 299.441 16.3877 299.072 16.5208 298.698H139.543L140.414 298.97C141.279 299.23 142.742 299.677 144.647 300.24L145.288 300.433C145.494 300.493 145.705 300.566 145.929 300.627C157.183 303.934 179.853 310.471 185.713 310.471H196.598L250.732 310.61L300.131 310.737L390.735 310.979L403.065 311.04Z" fill="black"/>
<path opacity="0.1" d="M403.065 312.158V439.976H245.966L243.717 418.582C243.717 418.582 224.886 417.493 203.201 413.974C201.956 413.762 200.698 413.556 199.428 413.333C194.264 412.438 188.991 411.404 183.82 410.206L182.786 409.964C180.851 409.513 178.938 409.035 177.047 408.531C175.191 408.047 173.365 407.527 171.575 406.995C169.029 406.227 166.568 405.423 164.203 404.576C156.022 401.613 149.086 398.064 144.605 393.819L141.261 393.734L103.883 392.791H103.206H102.994H102.317L80.2029 392.222L78.165 392.174L47.1614 392.549L46.4176 391.436C43.8859 387.614 41.4147 383.746 39.0039 379.832C35.2909 373.827 31.6869 367.737 28.1191 361.69C22.0175 351.41 15.8011 340.791 13.6967 329.036C12.4729 321.995 12.6043 314.784 14.0837 307.792C14.6349 305.108 15.3293 302.456 16.1639 299.846H139.543L140.293 300.07L144.387 301.28L145.034 301.473L145.681 301.667C156.838 304.992 179.793 311.626 185.695 311.626H196.035L249.577 311.759L299.109 311.898C334.98 311.983 370.15 312.08 388.975 312.128L403.065 312.158Z" fill="black"/>
<path d="M435.731 282.322V302.568L403.071 326.968L388.993 312.122L435.731 282.322Z" fill="#3A3768"/>
<path opacity="0.1" d="M435.731 282.322V302.568L403.071 326.968L388.993 312.122L435.731 282.322Z" fill="black"/>
<path d="M452.633 304.642L435.731 302.568L403.071 326.968V339.733L452.633 304.642Z" fill="#3A3768"/>
<path d="M459.769 282.322V324.718L470.653 336.728L403.071 401.976V339.733L452.633 304.642L435.731 302.568V282.322H459.769Z" fill="#3A3768"/>
<path opacity="0.1" d="M459.769 282.322V324.718L470.653 336.728L403.071 401.976V339.733L452.633 304.642L435.731 302.568V282.322H459.769Z" fill="black"/>
<path opacity="0.1" d="M463.898 337.103L508.194 334.684L504.813 369.878L453.382 438.416L454.888 388.908H415.473L463.898 337.103Z" fill="black"/>
<path d="M465.024 337.103L509.319 334.684L505.945 369.878L454.514 438.416L456.014 388.908H416.604L465.024 337.103Z" fill="#3A3768"/>
<path opacity="0.1" d="M493.928 357.379H471.403L442.873 388.908H456.763L456.46 399.013L493.928 357.379Z" fill="black"/>
<path opacity="0.1" d="M492.429 357.379H469.903L441.373 388.908H455.263L454.955 399.013L492.429 357.379Z" fill="black"/>
<path d="M493.179 357.379H470.653L442.123 388.908H456.013L455.705 399.013L493.179 357.379Z" fill="#DCE6F2"/>
<path opacity="0.1" d="M455.263 437.666L403.82 439.232V401.226L417.354 388.159H456.763L455.263 437.666Z" fill="black"/>
<path d="M454.514 438.416L403.071 439.982V401.976L416.604 388.908H456.013L454.514 438.416Z" fill="#3A3768"/>
<path opacity="0.1" d="M454.514 438.416L403.071 439.982V401.976L416.604 388.908H456.013L454.514 438.416Z" fill="black"/>
<path d="M599.886 457.277C597.355 459.192 594.579 460.76 591.632 461.939C591.632 461.939 533.108 465.38 524.853 465.38C520.62 465.38 512.451 466.505 505.424 467.624L503.314 467.95C500.586 468.392 498.137 468.809 496.305 469.16L495.507 469.305C493.886 469.583 492.919 469.764 492.919 469.764C492.919 469.764 482.899 471.826 484.271 473.659C484.695 474.209 485.1 475.811 485.481 477.771C475.86 473.84 466.19 470.055 456.255 467.013C452.125 465.749 447.946 464.594 443.749 463.59C443.979 456.049 443.901 448.835 443.018 445.231C442.443 443.142 442.173 440.981 442.214 438.815C442.214 438.561 442.214 438.319 442.268 438.083C442.607 434.872 444.082 433.657 444.39 431.25C444.62 429.436 448.926 428.088 453.745 426.884L454.876 426.606L455.62 426.425C458.529 425.723 461.455 425.046 463.657 424.302C463.826 424.248 463.983 424.193 464.134 424.133C464.696 423.935 465.245 423.705 465.779 423.443C465.912 423.365 466.045 423.298 466.166 423.22C470.756 420.468 517.301 413.133 520.965 411.99C524.63 410.847 530.133 405.798 530.133 405.798C530.266 404.985 530.585 404.213 531.064 403.542C533.295 400.301 538.635 398.426 539.167 398.245H539.203L543.66 394.804C543.66 394.804 561.451 392.156 579.09 394.804C580.426 395.004 581.751 395.234 583.075 395.5C587.928 396.408 592.645 397.934 597.11 400.041C602.166 402.52 606.502 405.889 609.465 410.442C611.084 412.945 612.249 415.715 612.906 418.624C613.397 420.745 613.75 422.897 613.964 425.064C614.012 425.548 614.054 426.019 614.079 426.491C615.113 442.673 606.707 452.252 599.886 457.277Z" fill="#2D427A"/>
<path d="M539.191 374.994L483.128 347.782C483.128 347.782 463.409 369.322 460.198 355.825C456.987 342.327 470.29 333.124 470.29 333.124L565.436 355.365L539.191 374.994Z" fill="#FBBEBE"/>
<path opacity="0.05" d="M539.191 374.994L483.128 347.782C483.128 347.782 463.409 369.322 460.198 355.825C456.987 342.327 470.29 333.124 470.29 333.124L565.436 355.365L539.191 374.994Z" fill="black"/>
<path d="M569.79 274.86C569.79 274.86 537.462 305.585 537.921 295.269C537.946 293.786 537.789 292.306 537.456 290.86C535.998 283.785 531.451 273.505 527.847 266.067C525.174 260.54 523.009 256.549 523.009 256.549C523.009 256.549 563.362 238.668 561.753 244.854C561.227 246.874 561.904 250.762 563.041 255.092C564.214 259.548 565.889 264.477 567.274 268.305C568.659 272.132 569.79 274.86 569.79 274.86Z" fill="#FBBEBE"/>
<path opacity="0.1" d="M558.325 252.624C553.408 260.649 549.29 268.444 539.197 268.444C535.286 268.446 531.418 267.622 527.847 266.025C525.174 260.498 523.009 256.507 523.009 256.507C523.009 256.507 563.362 238.625 561.753 244.812C561.239 246.849 557.182 248.301 558.325 252.624Z" fill="black"/>
<path d="M539.197 267.065C554.643 267.065 567.165 254.543 567.165 239.097C567.165 223.651 554.643 211.129 539.197 211.129C523.751 211.129 511.229 223.651 511.229 239.097C511.229 254.543 523.751 267.065 539.197 267.065Z" fill="#FBBEBE"/>
<path opacity="0.1" d="M614.067 426.479C613.816 426.4 613.583 426.271 613.381 426.101C613.18 425.931 613.014 425.722 612.894 425.487C611.286 422.282 581.479 417.693 581.479 417.693L575.039 405.774C575.039 405.774 559.45 406.917 556.698 403.96C553.947 401.003 539.041 400.519 539.161 399.606C539.188 399.15 539.174 398.693 539.119 398.239H539.161L543.618 394.798C543.618 394.798 605.299 385.625 612.858 418.642C613.472 421.217 613.877 423.838 614.067 426.479V426.479Z" fill="black"/>
<path opacity="0.1" d="M569.79 274.86C569.79 274.86 537.462 305.585 537.922 295.269C537.946 293.786 537.789 292.306 537.456 290.86L537.547 290.516C537.547 290.516 545.735 281.959 547.797 278.059C549.224 275.374 560.496 270.802 567.305 268.268C568.689 272.132 569.79 274.86 569.79 274.86Z" fill="black"/>
<path d="M572.541 267.065C572.541 267.065 549.84 274.866 547.748 278.76C545.656 282.654 537.547 291.217 537.547 291.217L530.145 323.007L534.499 366.8C534.499 366.8 535.648 375.054 534.039 378.03C532.431 381.005 531.977 387.663 535.418 389.265C538.859 390.868 539.337 397.29 539.21 398.209C539.083 399.128 553.989 399.582 556.746 402.563C559.504 405.544 575.087 404.377 575.087 404.377L581.479 416.296C581.479 416.296 611.285 420.88 612.894 424.091C614.502 427.302 623.894 423.631 617.732 414.917C611.569 406.203 614.75 392.452 614.75 392.452C614.75 392.452 612.936 331.926 603.261 317.71C603.261 317.71 589.504 284.698 587.212 283.32C584.92 281.941 571.163 272.338 572.541 267.065Z" fill="#D86962"/>
<path opacity="0.1" d="M572.541 371.269C572.541 371.269 613.347 403.923 610.595 409.898C607.844 415.872 572.541 371.269 572.541 371.269Z" fill="black"/>
<path opacity="0.1" d="M574.96 390.862C574.96 390.862 598.78 402.744 595.466 410.448L574.96 390.862Z" fill="black"/>
<path opacity="0.1" d="M546.405 361.267C546.405 361.267 559.243 360.662 559.709 363.045L546.405 361.267Z" fill="black"/>
<path opacity="0.1" d="M543.654 371.269C543.654 371.269 562.454 375.967 562.454 378.719L543.654 371.269Z" fill="black"/>
<path d="M560.641 341.547L539.198 361.164C539.198 361.164 525.289 366.334 523.022 371.269C520.754 376.203 503.761 378.719 502.848 374.994C501.935 371.269 476.713 350.751 476.713 350.751C476.713 350.751 462.956 338.373 459.745 329.217C456.534 320.062 444.627 312.358 444.627 312.358C444.627 312.358 408.405 302.622 413.907 289.095C419.41 275.567 456.515 300.312 456.515 300.312C456.515 300.312 479.446 316.815 483.123 321.864C486.799 326.913 512.923 338.01 512.923 338.01C512.681 335.663 517.392 329.858 521.945 324.845C526.1 320.268 530.121 316.379 530.121 316.379L560.399 341.372L560.641 341.547Z" fill="#FBBEBE"/>
<path opacity="0.1" d="M576.206 422.512C576.206 422.512 595.466 445.667 594.347 450.25C593.229 454.834 576.206 422.512 576.206 422.512Z" fill="black"/>
<path opacity="0.1" d="M462.949 444.747C463.409 445.437 465.241 453.213 473.955 457.815L462.949 444.747Z" fill="black"/>
<path opacity="0.1" d="M482.669 451.284C482.669 451.284 482.209 460.355 488.861 462.629C495.513 464.902 482.669 451.284 482.669 451.284Z" fill="black"/>
<path d="M574.286 248.215C573.728 246.588 572.803 245.112 571.583 243.899C570.363 242.687 568.88 241.772 567.25 241.224C568.147 240.544 568.779 239.573 569.038 238.478C569.296 237.383 569.164 236.231 568.665 235.223C568.653 236.005 567.868 236.521 567.182 236.896C566.779 237.116 566.42 237.292 566.082 237.451C566.5 235.488 566.738 233.491 566.791 231.485C566.768 227.251 565.016 223.233 562.98 219.522C560.238 214.507 556.65 209.568 551.302 207.303C548.909 206.409 546.419 205.803 543.883 205.495C541.547 205.031 539.169 204.81 536.787 204.834C534.393 204.942 532.048 205.538 529.669 205.881C525.058 206.55 520.346 206.235 515.783 207.274C511.219 208.313 506.617 211.046 505.363 215.431C504.95 216.766 504.983 218.199 505.456 219.513C506.363 221.802 508.861 223.179 511.359 223.507C513.857 223.834 516.243 223.182 518.699 223.27C521.587 223.375 524.48 223.723 527.387 223.898C528.939 223.989 530.555 224.106 531.898 224.859C534.037 226.054 534.953 228.529 536 230.71C537.595 234.032 539.811 237.018 542.526 239.509C543.484 240.389 544.536 241.249 545.05 242.43C545.681 243.867 545.637 245.877 547.112 246.499C548.257 246.974 549.545 246.216 550.416 245.293C551.287 244.37 551.928 243.253 553.039 242.671C554.374 241.968 556.059 242.242 557.377 242.908C558.419 243.43 559.336 244.172 560.065 245.081C560.793 245.991 561.317 247.047 561.599 248.178C561.932 249.586 561.907 251.151 562.764 252.323C563.563 253.399 565.588 253.608 566.204 252.536C566.312 252.664 566.428 252.785 566.551 252.897C567.824 254.009 569.691 254.169 571.361 253.875C572.203 253.78 572.998 253.44 573.649 252.898C574.886 251.734 574.81 249.789 574.286 248.215Z" fill="#3F3D56"/>
<g opacity="0.1">
<path opacity="0.1" d="M320.86 77.0947C321.084 75.722 321.326 74.307 321.628 72.9101C321.004 75.1908 320.517 77.507 320.171 79.8461C319.512 83.9219 318.816 88.0339 317.867 92.0613C319.119 87.1266 320.118 82.1313 320.86 77.0947Z" fill="black"/>
<path opacity="0.1" d="M404.782 98.7857C403.397 99.6565 401.758 100.086 400.331 100.86C398.904 101.634 397.549 102.94 397.465 104.579C397.447 104.863 397.447 105.148 397.465 105.431C398.037 104.673 398.773 104.053 399.617 103.617C401.057 102.843 402.677 102.408 404.062 101.543C405.212 100.768 406.172 99.7442 406.874 98.5479C407.575 97.3516 407.999 96.0132 408.114 94.6313C407.465 96.3305 406.299 97.7835 404.782 98.7857Z" fill="black"/>
<path opacity="0.1" d="M394.23 107.699C393.183 107.312 392.083 106.738 391.019 107.094C390.872 108.161 390.311 109.128 389.458 109.785L385.268 104.651C385.149 104.481 384.989 104.343 384.802 104.252C384.379 104.101 383.962 104.452 383.593 104.7C382.184 105.625 380.255 105.153 378.828 104.252C377.4 103.351 376.239 102.063 374.77 101.229C373.365 100.456 371.761 100.121 370.164 100.266C368.567 100.412 367.05 101.031 365.808 102.045C364.662 103.132 363.647 104.35 362.785 105.673C361.596 107.459 360.039 108.971 358.219 110.106C356.363 111.158 354.022 111.545 352.069 110.711C351.455 110.371 350.814 110.084 350.152 109.852C348.078 109.344 346.228 111.164 344.897 112.833C343.567 114.502 341.874 116.383 339.739 116.068C335.814 115.464 336.171 108.564 332.404 107.318C330.771 106.78 328.999 107.59 327.633 108.636C326.266 109.683 325.069 110.995 323.496 111.66C319.759 113.305 315.508 110.922 312.436 108.237C312.27 108.1 312.118 107.946 311.983 107.778C311.813 108.074 311.65 108.383 311.475 108.661C311.162 109.045 311.008 109.534 311.045 110.027C311.17 110.415 311.416 110.752 311.747 110.989C314.819 113.674 319.07 116.056 322.807 114.411C324.379 113.716 325.577 112.404 326.943 111.358C328.31 110.312 330.082 109.501 331.714 110.039C335.482 111.285 335.125 118.197 339.05 118.79C341.16 119.104 342.884 117.223 344.208 115.554C345.532 113.885 347.395 112.065 349.463 112.573C350.125 112.803 350.767 113.091 351.38 113.432C353.333 114.291 355.673 113.904 357.536 112.827C359.353 111.69 360.907 110.179 362.095 108.395C362.956 107.061 363.971 105.833 365.119 104.736C366.355 103.724 367.865 103.103 369.456 102.954C371.047 102.804 372.647 103.132 374.05 103.896C375.52 104.73 376.687 106.012 378.108 106.919C379.529 107.826 381.464 108.292 382.873 107.367C383.254 107.119 383.671 106.762 384.082 106.919C384.269 107.01 384.43 107.147 384.548 107.318L388.739 112.452C389.592 111.795 390.152 110.828 390.299 109.761C391.363 109.429 392.47 110.003 393.516 110.366C394.562 110.729 395.935 110.844 396.54 109.906C396.963 109.247 396.775 108.413 396.745 107.608C396.355 107.797 395.93 107.902 395.497 107.918C395.064 107.933 394.632 107.859 394.23 107.699V107.699Z" fill="black"/>
</g>
<path opacity="0.1" d="M560.405 341.354C560.042 341.668 559.662 341.963 559.268 342.237C559.268 342.237 527.218 325.154 521.951 324.845C526.106 320.267 530.127 316.379 530.127 316.379L560.405 341.354Z" fill="black"/>
<path opacity="0.1" d="M562.019 283.815C562.019 283.815 590.441 302.398 580.336 319.584C570.231 336.77 562.019 342.237 562.019 342.237C562.019 342.237 528.524 324.38 524.394 324.845C520.264 325.311 538.907 291.907 538.907 291.907L562.019 283.815Z" fill="black"/>
<path d="M560.64 283.126C560.64 283.126 589.062 301.709 578.957 318.895C568.852 336.081 560.64 341.547 560.64 341.547C560.64 341.547 527.145 323.696 523.033 324.156C518.921 324.615 537.546 291.217 537.546 291.217L560.64 283.126Z" fill="#D86962"/>
<g opacity="0.1">
<path opacity="0.1" d="M570.806 261.49C569.125 261.314 567.371 260.655 566.44 259.24C566.349 259.095 566.277 258.944 566.204 258.799C565.321 259.663 563.428 258.913 562.951 257.662C562.431 256.301 562.884 254.801 562.951 253.356C562.987 252.191 562.77 251.032 562.315 249.959C561.859 248.885 561.177 247.924 560.314 247.14C559.214 246.142 557.684 245.422 556.202 245.737C554.993 245.997 554.025 246.898 552.967 247.551C551.909 248.204 550.433 248.585 549.46 247.817C548.214 246.819 548.794 244.896 548.577 243.342C548.401 242.066 547.621 240.954 546.938 239.847C545.001 236.712 543.677 233.238 543.037 229.609C542.62 227.227 542.433 224.596 540.679 222.867C539.591 221.778 538.067 221.228 536.597 220.72C533.864 219.764 531.155 218.646 528.397 217.763C526.063 217.013 523.56 216.971 521.274 216.003C518.988 215.036 516.92 212.98 516.666 210.561C516.566 209.166 516.925 207.777 517.688 206.606C517.87 206.306 518.072 206.02 518.293 205.747C517.507 206.374 516.834 207.131 516.303 207.985C515.54 209.154 515.183 210.541 515.287 211.933C515.541 214.382 517.573 216.384 519.889 217.376C522.205 218.368 524.678 218.386 527.019 219.136C529.77 220.018 532.461 221.137 535.213 222.093C536.682 222.607 538.236 223.151 539.294 224.239C541.03 225.975 541.241 228.605 541.659 230.988C542.296 234.616 543.62 238.088 545.559 241.22C546.242 242.326 547.016 243.439 547.198 244.721C547.416 246.275 546.829 248.198 548.081 249.19C549.048 249.964 550.5 249.583 551.588 248.93C552.677 248.277 553.596 247.37 554.823 247.116C556.299 246.801 557.847 247.521 558.935 248.525C559.798 249.309 560.48 250.271 560.935 251.344C561.39 252.417 561.607 253.576 561.572 254.741C561.511 256.186 561.064 257.686 561.572 259.04C562.05 260.292 563.936 261.048 564.825 260.177C564.892 260.331 564.971 260.478 565.061 260.619C565.986 262.034 567.74 262.693 569.421 262.868C570.26 263.003 571.119 262.889 571.894 262.542C572.451 262.241 572.899 261.774 573.176 261.205C572.426 261.51 571.607 261.608 570.806 261.49Z" fill="black"/>
<path opacity="0.1" d="M570.25 248.186L570.595 248.428C570.796 248.214 570.978 247.983 571.139 247.738C570.861 247.921 570.562 248.071 570.25 248.186Z" fill="black"/>
</g>
<path opacity="0.1" d="M125.937 82.4948C125.937 82.4948 148.009 81.1644 145.409 96.633C145.409 96.633 145.923 99.3663 143.45 100.606C143.45 100.606 143.407 99.463 141.182 99.85C140.383 99.9856 139.571 100.024 138.763 99.9649C137.681 99.8934 136.653 99.4685 135.836 98.7555V98.7555C135.836 98.7555 129.626 96.1915 127.213 86.0565C127.213 86.0565 125.399 83.8433 125.502 83.2749L129.227 84.8653C129.227 84.8653 127.951 87.5502 128.955 89.7876C128.955 89.7876 129.076 84.9499 129.789 85.0769C129.934 85.0769 131.724 86.0082 131.724 86.0082C131.724 86.0082 129.535 90.6886 131.186 94.0932C131.186 94.0932 130.581 88.3242 132.395 86.3468L135.02 87.8767C135.02 87.8767 132.462 92.7144 134.198 96.6571C134.198 96.6571 133.75 90.61 135.57 88.2516L137.947 90.1021C137.947 90.1021 135.528 94.8672 137.009 98.1387C137.009 98.1387 137.203 91.0938 138.461 90.5616C138.461 90.5616 140.541 92.3758 140.88 93.1498C140.88 93.1498 139.229 96.6088 140.275 98.435C140.275 98.435 140.88 93.7424 141.418 93.7243C141.418 93.7243 143.486 96.8325 143.704 98.9611C143.601 96.991 142.986 95.0817 141.92 93.4219C143.114 93.6493 144.215 94.221 145.088 95.0667C145.088 95.0667 144.768 92.8656 141.406 92.6479C141.406 92.6479 139.694 90.2895 139.235 90.1504C139.235 90.1504 142.579 89.8662 144.605 90.7552C144.605 90.7552 142.821 88.681 138.624 89.6243L136.278 87.7074C136.278 87.7074 140.68 87.1027 142.543 87.7739C142.543 87.7739 140.396 85.9598 135.649 87.272L133.091 85.7481C133.091 85.7481 136.846 84.9378 139.078 85.2281C139.078 85.2281 136.719 83.9582 132.341 85.3369L130.527 84.5145C130.527 84.5145 133.278 83.9763 134.083 83.9098C134.887 83.8433 134.929 83.6014 134.929 83.6014C133.188 83.3109 131.4 83.5098 129.765 84.1759C129.765 84.1759 125.871 82.7064 125.937 82.4948Z" fill="#6C63FF"/>
<path opacity="0.1" d="M467.454 361.164L489.163 362.089" stroke="black" stroke-miterlimit="10"/>
<path opacity="0.1" d="M463.923 365.04L485.632 365.966" stroke="black" stroke-miterlimit="10"/>
<path opacity="0.1" d="M460.391 368.911L482.1 369.836" stroke="black" stroke-miterlimit="10"/>
<path opacity="0.1" d="M456.854 372.787L478.563 373.712" stroke="black" stroke-miterlimit="10"/>
<path opacity="0.1" d="M453.322 376.657L475.031 377.588" stroke="black" stroke-miterlimit="10"/>
<path opacity="0.1" d="M449.791 380.533L471.5 381.458" stroke="black" stroke-miterlimit="10"/>
<path opacity="0.1" d="M446.253 384.409L467.963 385.334" stroke="black" stroke-miterlimit="10"/>
<path opacity="0.1" d="M442.722 388.279L464.431 389.205" stroke="black" stroke-miterlimit="10"/>
<path d="M245.067 209.885L245.114 209.876L238.122 169L199.459 181.283L205.244 217.844C203.252 216.584 200.877 216.074 198.543 216.404C196.209 216.734 194.068 217.884 192.504 219.647C190.939 221.41 190.053 223.671 190.002 226.028C189.952 228.385 190.741 230.682 192.229 232.511C193.716 234.339 195.805 235.579 198.123 236.009C200.441 236.439 202.835 236.03 204.88 234.857C206.924 233.684 208.485 231.822 209.283 229.604C210.081 227.386 210.064 224.957 209.236 222.75L209.271 222.744L203.063 183.508L235.578 173.178L241.105 205.491C239.065 204.285 236.661 203.849 234.327 204.263C231.993 204.677 229.885 205.913 228.384 207.748C226.884 209.582 226.09 211.894 226.147 214.263C226.204 216.632 227.108 218.903 228.695 220.663C230.283 222.424 232.448 223.557 234.799 223.858C237.15 224.159 239.531 223.608 241.51 222.305C243.49 221.002 244.937 219.032 245.589 216.754C246.242 214.475 246.056 212.038 245.067 209.885Z" fill="#6C63FF"/>
<path d="M287.378 182.707C287.382 181.001 286.818 179.342 285.776 177.991C284.733 176.64 283.271 175.675 281.619 175.246C279.968 174.818 278.22 174.951 276.653 175.625C275.085 176.299 273.786 177.475 272.96 178.968C272.135 180.461 271.829 182.186 272.092 183.872C272.354 185.558 273.17 187.109 274.411 188.28C275.652 189.452 277.247 190.177 278.945 190.342C280.643 190.507 282.348 190.102 283.792 189.192L279.473 216.484L281.933 216.873L286.914 185.392L286.887 185.388C287.21 184.531 287.376 183.623 287.378 182.707V182.707Z" fill="#6C63FF"/>
<path d="M359.017 208.967L359.063 208.981L370.8 169.206L330.681 163.194L319.762 198.563C318.529 196.554 316.621 195.05 314.381 194.318C312.14 193.586 309.713 193.674 307.531 194.567C305.35 195.46 303.557 197.1 302.473 199.193C301.39 201.286 301.086 203.697 301.615 205.994C302.145 208.29 303.474 210.324 305.365 211.731C307.256 213.138 309.586 213.827 311.938 213.675C314.29 213.523 316.511 212.539 318.205 210.9C319.899 209.26 320.954 207.072 321.183 204.726L321.218 204.737L332.935 166.78L366.675 171.836L357.397 203.278C356.097 201.296 354.131 199.845 351.854 199.188C349.576 198.531 347.139 198.712 344.984 199.697C342.828 200.683 341.097 202.408 340.104 204.56C339.111 206.712 338.922 209.149 339.571 211.428C340.22 213.708 341.664 215.679 343.642 216.986C345.619 218.292 348 218.847 350.351 218.549C352.702 218.252 354.869 217.121 356.459 215.363C358.049 213.606 358.956 211.336 359.017 208.967V208.967Z" fill="#6C63FF"/>
<path d="M403.915 195.485L403.942 195.481L398.961 164L396.501 164.389L400.82 191.681C399.275 190.705 397.433 190.309 395.624 190.565C393.814 190.821 392.154 191.712 390.941 193.079C389.728 194.446 389.041 196.2 389.002 198.027C388.963 199.855 389.575 201.636 390.728 203.054C391.881 204.471 393.501 205.433 395.298 205.766C397.095 206.099 398.952 205.783 400.537 204.873C402.123 203.963 403.333 202.52 403.951 200.8C404.57 199.08 404.557 197.197 403.915 195.485V195.485Z" fill="#6C63FF"/>
</svg>
